<?xml version="1.0" encoding="utf-8" standalone="no"?>
<!DOCTYPE svg PUBLIC "-//W3C//DTD SVG 1.1//EN"
  "http://www.w3.org/Graphics/SVG/1.1/DTD/svg11.dtd">
<!-- Created with matplotlib (https://matplotlib.org/) -->
<svg height="345.6pt" version="1.1" viewBox="0 0 460.8 345.6" width="460.8pt" xmlns="http://www.w3.org/2000/svg" xmlns:xlink="http://www.w3.org/1999/xlink">
 <defs>
  <style type="text/css">
*{stroke-linecap:butt;stroke-linejoin:round;}
  </style>
 </defs>
 <g id="figure_1">
  <g id="patch_1">
   <path d="M 0 345.6 
L 460.8 345.6 
L 460.8 0 
L 0 0 
z
" style="fill:#ffffff;"/>
  </g>
  <g id="patch_2">
   <path d="M 57.6 307.584 
L 414.72 307.584 
L 414.72 41.472 
L 57.6 41.472 
z
" style="fill:#ffffff;"/>
  </g>
  <g id="pane3d_1">
   <g id="patch_3">
    <path d="M 104.941774 248.782626 
L 207.151387 183.537994 
L 205.449705 58.866209 
L 97.541237 117.48717 
" style="fill:#f2f2f2;opacity:0.5;stroke:#f2f2f2;stroke-linejoin:miter;"/>
   </g>
  </g>
  <g id="pane3d_2">
   <g id="patch_4">
    <path d="M 207.151387 183.537994 
L 372.72135 220.013954 
L 379.648599 91.582742 
L 205.449705 58.866209 
" style="fill:#e6e6e6;opacity:0.5;stroke:#e6e6e6;stroke-linejoin:miter;"/>
   </g>
  </g>
  <g id="pane3d_3">
   <g id="patch_5">
    <path d="M 104.941774 248.782626 
L 279.143747 291.264825 
L 372.72135 220.013954 
L 207.151387 183.537994 
" style="fill:#ececec;opacity:0.5;stroke:#ececec;stroke-linejoin:miter;"/>
   </g>
  </g>
  <g id="axis3d_1">
   <g id="line2d_1">
    <path d="M 104.941774 248.782626 
L 279.143747 291.264825 
" style="fill:none;stroke:#000000;stroke-linecap:square;stroke-width:0.8;"/>
   </g>
   <g id="text_1">
    <!-- X -->
    <defs>
     <path d="M 49.8125 37.203125 
L 75.09375 0 
L 55.515625 0 
L 38.484375 24.90625 
L 21.578125 0 
L 1.90625 0 
L 27.203125 37.203125 
L 2.875 72.90625 
L 22.515625 72.90625 
L 38.484375 49.421875 
L 54.390625 72.90625 
L 74.125 72.90625 
z
" id="DejaVuSans-Bold-88"/>
    </defs>
    <g transform="translate(164.328098 313.696504)scale(0.12 -0.12)">
     <use xlink:href="#DejaVuSans-Bold-88"/>
    </g>
   </g>
   <g id="Line3DCollection_1">
    <path d="M 120.259558 252.518136 
L 221.754742 186.755192 
L 220.783647 61.746098 
" style="fill:none;stroke:#b0b0b0;stroke-width:0.8;"/>
    <path d="M 138.653979 257.003937 
L 239.279846 190.616067 
L 239.193283 65.203637 
" style="fill:none;stroke:#b0b0b0;stroke-width:0.8;"/>
    <path d="M 157.230232 261.534082 
L 256.965583 194.512331 
L 257.780261 68.694482 
" style="fill:none;stroke:#b0b0b0;stroke-width:0.8;"/>
    <path d="M 175.991026 266.109229 
L 274.814171 198.444472 
L 276.547157 72.219119 
" style="fill:none;stroke:#b0b0b0;stroke-width:0.8;"/>
    <path d="M 194.939124 270.730055 
L 292.82787 202.412987 
L 295.496595 75.778039 
" style="fill:none;stroke:#b0b0b0;stroke-width:0.8;"/>
    <path d="M 214.077345 275.397245 
L 311.008981 206.418384 
L 314.631253 79.371745 
" style="fill:none;stroke:#b0b0b0;stroke-width:0.8;"/>
    <path d="M 233.408566 280.111501 
L 329.35985 210.46118 
L 333.953858 83.00075 
" style="fill:none;stroke:#b0b0b0;stroke-width:0.8;"/>
    <path d="M 252.93572 284.873539 
L 347.882864 214.541901 
L 353.467195 86.665577 
" style="fill:none;stroke:#b0b0b0;stroke-width:0.8;"/>
    <path d="M 272.661803 289.684089 
L 366.580458 218.661082 
L 373.1741 90.366758 
" style="fill:none;stroke:#b0b0b0;stroke-width:0.8;"/>
   </g>
   <g id="xtick_1">
    <g id="line2d_2">
     <path d="M 121.134069 251.951503 
L 118.507268 253.653517 
" style="fill:none;stroke:#000000;stroke-linecap:square;stroke-width:0.8;"/>
    </g>
    <g id="text_2">
     <!-- −0.4 -->
     <defs>
      <path d="M 10.59375 35.5 
L 73.1875 35.5 
L 73.1875 27.203125 
L 10.59375 27.203125 
z
" id="DejaVuSans-8722"/>
      <path d="M 31.78125 66.40625 
Q 24.171875 66.40625 20.328125 58.90625 
Q 16.5 51.421875 16.5 36.375 
Q 16.5 21.390625 20.328125 13.890625 
Q 24.171875 6.390625 31.78125 6.390625 
Q 39.453125 6.390625 43.28125 13.890625 
Q 47.125 21.390625 47.125 36.375 
Q 47.125 51.421875 43.28125 58.90625 
Q 39.453125 66.40625 31.78125 66.40625 
z
M 31.78125 74.21875 
Q 44.046875 74.21875 50.515625 64.515625 
Q 56.984375 54.828125 56.984375 36.375 
Q 56.984375 17.96875 50.515625 8.265625 
Q 44.046875 -1.421875 31.78125 -1.421875 
Q 19.53125 -1.421875 13.0625 8.265625 
Q 6.59375 17.96875 6.59375 36.375 
Q 6.59375 54.828125 13.0625 64.515625 
Q 19.53125 74.21875 31.78125 74.21875 
z
" id="DejaVuSans-48"/>
      <path d="M 10.6875 12.40625 
L 21 12.40625 
L 21 0 
L 10.6875 0 
z
" id="DejaVuSans-46"/>
      <path d="M 37.796875 64.3125 
L 12.890625 25.390625 
L 37.796875 25.390625 
z
M 35.203125 72.90625 
L 47.609375 72.90625 
L 47.609375 25.390625 
L 58.015625 25.390625 
L 58.015625 17.1875 
L 47.609375 17.1875 
L 47.609375 0 
L 37.796875 0 
L 37.796875 17.1875 
L 4.890625 17.1875 
L 4.890625 26.703125 
z
" id="DejaVuSans-52"/>
     </defs>
     <g transform="translate(100.797443 274.009625)scale(0.1 -0.1)">
      <use xlink:href="#DejaVuSans-8722"/>
      <use x="83.789062" xlink:href="#DejaVuSans-48"/>
      <use x="147.412109" xlink:href="#DejaVuSans-46"/>
      <use x="179.199219" xlink:href="#DejaVuSans-52"/>
     </g>
    </g>
   </g>
   <g id="xtick_2">
    <g id="line2d_3">
     <path d="M 139.521306 256.431719 
L 136.916072 258.150521 
" style="fill:none;stroke:#000000;stroke-linecap:square;stroke-width:0.8;"/>
    </g>
    <g id="text_3">
     <!-- −0.3 -->
     <defs>
      <path d="M 40.578125 39.3125 
Q 47.65625 37.796875 51.625 33 
Q 55.609375 28.21875 55.609375 21.1875 
Q 55.609375 10.40625 48.1875 4.484375 
Q 40.765625 -1.421875 27.09375 -1.421875 
Q 22.515625 -1.421875 17.65625 -0.515625 
Q 12.796875 0.390625 7.625 2.203125 
L 7.625 11.71875 
Q 11.71875 9.328125 16.59375 8.109375 
Q 21.484375 6.890625 26.8125 6.890625 
Q 36.078125 6.890625 40.9375 10.546875 
Q 45.796875 14.203125 45.796875 21.1875 
Q 45.796875 27.640625 41.28125 31.265625 
Q 36.765625 34.90625 28.71875 34.90625 
L 20.21875 34.90625 
L 20.21875 43.015625 
L 29.109375 43.015625 
Q 36.375 43.015625 40.234375 45.921875 
Q 44.09375 48.828125 44.09375 54.296875 
Q 44.09375 59.90625 40.109375 62.90625 
Q 36.140625 65.921875 28.71875 65.921875 
Q 24.65625 65.921875 20.015625 65.03125 
Q 15.375 64.15625 9.8125 62.3125 
L 9.8125 71.09375 
Q 15.4375 72.65625 20.34375 73.4375 
Q 25.25 74.21875 29.59375 74.21875 
Q 40.828125 74.21875 47.359375 69.109375 
Q 53.90625 64.015625 53.90625 55.328125 
Q 53.90625 49.265625 50.4375 45.09375 
Q 46.96875 40.921875 40.578125 39.3125 
z
" id="DejaVuSans-51"/>
     </defs>
     <g transform="translate(119.189782 278.572171)scale(0.1 -0.1)">
      <use xlink:href="#DejaVuSans-8722"/>
      <use x="83.789062" xlink:href="#DejaVuSans-48"/>
      <use x="147.412109" xlink:href="#DejaVuSans-46"/>
      <use x="179.199219" xlink:href="#DejaVuSans-51"/>
     </g>
    </g>
   </g>
   <g id="xtick_3">
    <g id="line2d_4">
     <path d="M 158.090188 260.956195 
L 155.507077 262.692035 
" style="fill:none;stroke:#000000;stroke-linecap:square;stroke-width:0.8;"/>
    </g>
    <g id="text_4">
     <!-- −0.2 -->
     <defs>
      <path d="M 19.1875 8.296875 
L 53.609375 8.296875 
L 53.609375 0 
L 7.328125 0 
L 7.328125 8.296875 
Q 12.9375 14.109375 22.625 23.890625 
Q 32.328125 33.6875 34.8125 36.53125 
Q 39.546875 41.84375 41.421875 45.53125 
Q 43.3125 49.21875 43.3125 52.78125 
Q 43.3125 58.59375 39.234375 62.25 
Q 35.15625 65.921875 28.609375 65.921875 
Q 23.96875 65.921875 18.8125 64.3125 
Q 13.671875 62.703125 7.8125 59.421875 
L 7.8125 69.390625 
Q 13.765625 71.78125 18.9375 73 
Q 24.125 74.21875 28.421875 74.21875 
Q 39.75 74.21875 46.484375 68.546875 
Q 53.21875 62.890625 53.21875 53.421875 
Q 53.21875 48.921875 51.53125 44.890625 
Q 49.859375 40.875 45.40625 35.40625 
Q 44.1875 33.984375 37.640625 27.21875 
Q 31.109375 20.453125 19.1875 8.296875 
z
" id="DejaVuSans-50"/>
     </defs>
     <g transform="translate(137.764268 283.179902)scale(0.1 -0.1)">
      <use xlink:href="#DejaVuSans-8722"/>
      <use x="83.789062" xlink:href="#DejaVuSans-48"/>
      <use x="147.412109" xlink:href="#DejaVuSans-46"/>
      <use x="179.199219" xlink:href="#DejaVuSans-50"/>
     </g>
    </g>
   </g>
   <g id="xtick_4">
    <g id="line2d_5">
     <path d="M 176.843422 265.525589 
L 174.283004 267.278722 
" style="fill:none;stroke:#000000;stroke-linecap:square;stroke-width:0.8;"/>
    </g>
    <g id="text_5">
     <!-- −0.1 -->
     <defs>
      <path d="M 12.40625 8.296875 
L 28.515625 8.296875 
L 28.515625 63.921875 
L 10.984375 60.40625 
L 10.984375 69.390625 
L 28.421875 72.90625 
L 38.28125 72.90625 
L 38.28125 8.296875 
L 54.390625 8.296875 
L 54.390625 0 
L 12.40625 0 
z
" id="DejaVuSans-49"/>
     </defs>
     <g transform="translate(156.523622 287.833493)scale(0.1 -0.1)">
      <use xlink:href="#DejaVuSans-8722"/>
      <use x="83.789062" xlink:href="#DejaVuSans-48"/>
      <use x="147.412109" xlink:href="#DejaVuSans-46"/>
      <use x="179.199219" xlink:href="#DejaVuSans-49"/>
     </g>
    </g>
   </g>
   <g id="xtick_5">
    <g id="line2d_6">
     <path d="M 195.783765 270.140575 
L 193.246623 271.911259 
" style="fill:none;stroke:#000000;stroke-linecap:square;stroke-width:0.8;"/>
    </g>
    <g id="text_6">
     <!-- 0.0 -->
     <g transform="translate(179.660461 292.533632)scale(0.1 -0.1)">
      <use xlink:href="#DejaVuSans-48"/>
      <use x="63.623047" xlink:href="#DejaVuSans-46"/>
      <use x="95.410156" xlink:href="#DejaVuSans-48"/>
     </g>
    </g>
   </g>
   <g id="xtick_6">
    <g id="line2d_7">
     <path d="M 214.914034 274.801837 
L 212.400765 276.590339 
" style="fill:none;stroke:#000000;stroke-linecap:square;stroke-width:0.8;"/>
    </g>
    <g id="text_7">
     <!-- 0.1 -->
     <g transform="translate(198.797927 297.28102)scale(0.1 -0.1)">
      <use xlink:href="#DejaVuSans-48"/>
      <use x="63.623047" xlink:href="#DejaVuSans-46"/>
      <use x="95.410156" xlink:href="#DejaVuSans-49"/>
     </g>
    </g>
   </g>
   <g id="xtick_7">
    <g id="line2d_8">
     <path d="M 234.237098 279.510076 
L 231.748315 281.316665 
" style="fill:none;stroke:#000000;stroke-linecap:square;stroke-width:0.8;"/>
    </g>
    <g id="text_8">
     <!-- 0.2 -->
     <g transform="translate(218.128751 302.076374)scale(0.1 -0.1)">
      <use xlink:href="#DejaVuSans-48"/>
      <use x="63.623047" xlink:href="#DejaVuSans-46"/>
      <use x="95.410156" xlink:href="#DejaVuSans-50"/>
     </g>
    </g>
   </g>
   <g id="xtick_8">
    <g id="line2d_9">
     <path d="M 253.755887 284.266005 
L 251.292216 286.090957 
" style="fill:none;stroke:#000000;stroke-linecap:square;stroke-width:0.8;"/>
    </g>
    <g id="text_9">
     <!-- 0.3 -->
     <g transform="translate(237.655877 306.920424)scale(0.1 -0.1)">
      <use xlink:href="#DejaVuSans-48"/>
      <use x="63.623047" xlink:href="#DejaVuSans-46"/>
      <use x="95.410156" xlink:href="#DejaVuSans-51"/>
     </g>
    </g>
   </g>
   <g id="xtick_9">
    <g id="line2d_10">
     <path d="M 273.47339 289.070352 
L 271.035473 290.913949 
" style="fill:none;stroke:#000000;stroke-linecap:square;stroke-width:0.8;"/>
    </g>
    <g id="text_10">
     <!-- 0.4 -->
     <g transform="translate(257.382311 311.813916)scale(0.1 -0.1)">
      <use xlink:href="#DejaVuSans-48"/>
      <use x="63.623047" xlink:href="#DejaVuSans-46"/>
      <use x="95.410156" xlink:href="#DejaVuSans-52"/>
     </g>
    </g>
   </g>
  </g>
  <g id="axis3d_2">
   <g id="line2d_11">
    <path d="M 372.72135 220.013954 
L 279.143747 291.264825 
" style="fill:none;stroke:#000000;stroke-linecap:square;stroke-width:0.8;"/>
   </g>
   <g id="text_11">
    <!-- Y -->
    <defs>
     <path d="M -0.984375 72.90625 
L 19.578125 72.90625 
L 36.1875 46.921875 
L 52.78125 72.90625 
L 73.390625 72.90625 
L 45.609375 30.71875 
L 45.609375 0 
L 26.8125 0 
L 26.8125 30.71875 
z
" id="DejaVuSans-Bold-89"/>
    </defs>
    <g transform="translate(358.521744 291.281116)scale(0.12 -0.12)">
     <use xlink:href="#DejaVuSans-Bold-89"/>
    </g>
   </g>
   <g id="Line3DCollection_2">
    <path d="M 103.060799 114.488684 
L 110.150526 245.457664 
L 283.9278 287.622202 
" style="fill:none;stroke:#b0b0b0;stroke-width:0.8;"/>
    <path d="M 125.173209 102.476182 
L 131.03859 232.123947 
L 303.096303 273.027123 
" style="fill:none;stroke:#b0b0b0;stroke-width:0.8;"/>
    <path d="M 146.609775 90.83083 
L 151.320095 219.177422 
L 321.683033 258.875011 
" style="fill:none;stroke:#b0b0b0;stroke-width:0.8;"/>
    <path d="M 167.401015 79.536049 
L 171.021082 206.601465 
L 339.714081 245.146001 
" style="fill:none;stroke:#b0b0b0;stroke-width:0.8;"/>
    <path d="M 187.575637 68.576244 
L 190.166124 194.380391 
L 357.213998 231.821398 
" style="fill:none;stroke:#b0b0b0;stroke-width:0.8;"/>
   </g>
   <g id="xtick_10">
    <g id="line2d_12">
     <path d="M 282.473354 287.269302 
L 286.839948 288.328793 
" style="fill:none;stroke:#000000;stroke-linecap:square;stroke-width:0.8;"/>
    </g>
    <g id="text_12">
     <!-- −0.8 -->
     <defs>
      <path d="M 31.78125 34.625 
Q 24.75 34.625 20.71875 30.859375 
Q 16.703125 27.09375 16.703125 20.515625 
Q 16.703125 13.921875 20.71875 10.15625 
Q 24.75 6.390625 31.78125 6.390625 
Q 38.8125 6.390625 42.859375 10.171875 
Q 46.921875 13.96875 46.921875 20.515625 
Q 46.921875 27.09375 42.890625 30.859375 
Q 38.875 34.625 31.78125 34.625 
z
M 21.921875 38.8125 
Q 15.578125 40.375 12.03125 44.71875 
Q 8.5 49.078125 8.5 55.328125 
Q 8.5 64.0625 14.71875 69.140625 
Q 20.953125 74.21875 31.78125 74.21875 
Q 42.671875 74.21875 48.875 69.140625 
Q 55.078125 64.0625 55.078125 55.328125 
Q 55.078125 49.078125 51.53125 44.71875 
Q 48 40.375 41.703125 38.8125 
Q 48.828125 37.15625 52.796875 32.3125 
Q 56.78125 27.484375 56.78125 20.515625 
Q 56.78125 9.90625 50.3125 4.234375 
Q 43.84375 -1.421875 31.78125 -1.421875 
Q 19.734375 -1.421875 13.25 4.234375 
Q 6.78125 9.90625 6.78125 20.515625 
Q 6.78125 27.484375 10.78125 32.3125 
Q 14.796875 37.15625 21.921875 38.8125 
z
M 18.3125 54.390625 
Q 18.3125 48.734375 21.84375 45.5625 
Q 25.390625 42.390625 31.78125 42.390625 
Q 38.140625 42.390625 41.71875 45.5625 
Q 45.3125 48.734375 45.3125 54.390625 
Q 45.3125 60.0625 41.71875 63.234375 
Q 38.140625 66.40625 31.78125 66.40625 
Q 25.390625 66.40625 21.84375 63.234375 
Q 18.3125 60.0625 18.3125 54.390625 
z
" id="DejaVuSans-56"/>
     </defs>
     <g transform="translate(284.503123 307.393628)scale(0.1 -0.1)">
      <use xlink:href="#DejaVuSans-8722"/>
      <use x="83.789062" xlink:href="#DejaVuSans-48"/>
      <use x="147.412109" xlink:href="#DejaVuSans-46"/>
      <use x="179.199219" xlink:href="#DejaVuSans-56"/>
     </g>
    </g>
   </g>
   <g id="xtick_11">
    <g id="line2d_13">
     <path d="M 301.657228 272.685013 
L 305.977623 273.712098 
" style="fill:none;stroke:#000000;stroke-linecap:square;stroke-width:0.8;"/>
    </g>
    <g id="text_13">
     <!-- −0.6 -->
     <defs>
      <path d="M 33.015625 40.375 
Q 26.375 40.375 22.484375 35.828125 
Q 18.609375 31.296875 18.609375 23.390625 
Q 18.609375 15.53125 22.484375 10.953125 
Q 26.375 6.390625 33.015625 6.390625 
Q 39.65625 6.390625 43.53125 10.953125 
Q 47.40625 15.53125 47.40625 23.390625 
Q 47.40625 31.296875 43.53125 35.828125 
Q 39.65625 40.375 33.015625 40.375 
z
M 52.59375 71.296875 
L 52.59375 62.3125 
Q 48.875 64.0625 45.09375 64.984375 
Q 41.3125 65.921875 37.59375 65.921875 
Q 27.828125 65.921875 22.671875 59.328125 
Q 17.53125 52.734375 16.796875 39.40625 
Q 19.671875 43.65625 24.015625 45.921875 
Q 28.375 48.1875 33.59375 48.1875 
Q 44.578125 48.1875 50.953125 41.515625 
Q 57.328125 34.859375 57.328125 23.390625 
Q 57.328125 12.15625 50.6875 5.359375 
Q 44.046875 -1.421875 33.015625 -1.421875 
Q 20.359375 -1.421875 13.671875 8.265625 
Q 6.984375 17.96875 6.984375 36.375 
Q 6.984375 53.65625 15.1875 63.9375 
Q 23.390625 74.21875 37.203125 74.21875 
Q 40.921875 74.21875 44.703125 73.484375 
Q 48.484375 72.75 52.59375 71.296875 
z
" id="DejaVuSans-54"/>
     </defs>
     <g transform="translate(303.466137 292.618405)scale(0.1 -0.1)">
      <use xlink:href="#DejaVuSans-8722"/>
      <use x="83.789062" xlink:href="#DejaVuSans-48"/>
      <use x="147.412109" xlink:href="#DejaVuSans-46"/>
      <use x="179.199219" xlink:href="#DejaVuSans-54"/>
     </g>
    </g>
   </g>
   <g id="xtick_12">
    <g id="line2d_14">
     <path d="M 320.259073 258.543203 
L 324.534042 259.539347 
" style="fill:none;stroke:#000000;stroke-linecap:square;stroke-width:0.8;"/>
    </g>
    <g id="text_14">
     <!-- −0.4 -->
     <g transform="translate(321.853901 278.291393)scale(0.1 -0.1)">
      <use xlink:href="#DejaVuSans-8722"/>
      <use x="83.789062" xlink:href="#DejaVuSans-48"/>
      <use x="147.412109" xlink:href="#DejaVuSans-46"/>
      <use x="179.199219" xlink:href="#DejaVuSans-52"/>
     </g>
    </g>
   </g>
   <g id="xtick_13">
    <g id="line2d_15">
     <path d="M 338.304983 244.824037 
L 342.535289 245.790616 
" style="fill:none;stroke:#000000;stroke-linecap:square;stroke-width:0.8;"/>
    </g>
    <g id="text_15">
     <!-- −0.2 -->
     <g transform="translate(339.692199 264.392504)scale(0.1 -0.1)">
      <use xlink:href="#DejaVuSans-8722"/>
      <use x="83.789062" xlink:href="#DejaVuSans-48"/>
      <use x="147.412109" xlink:href="#DejaVuSans-46"/>
      <use x="179.199219" xlink:href="#DejaVuSans-50"/>
     </g>
    </g>
   </g>
   <g id="xtick_14">
    <g id="line2d_16">
     <path d="M 355.81951 231.508846 
L 360.005911 232.447159 
" style="fill:none;stroke:#000000;stroke-linecap:square;stroke-width:0.8;"/>
    </g>
    <g id="text_16">
     <!-- 0.0 -->
     <g transform="translate(361.195141 250.902829)scale(0.1 -0.1)">
      <use xlink:href="#DejaVuSans-48"/>
      <use x="63.623047" xlink:href="#DejaVuSans-46"/>
      <use x="95.410156" xlink:href="#DejaVuSans-48"/>
     </g>
    </g>
   </g>
  </g>
  <g id="axis3d_3">
   <g id="line2d_17">
    <path d="M 372.72135 220.013954 
L 379.648599 91.582742 
" style="fill:none;stroke:#000000;stroke-linecap:square;stroke-width:0.8;"/>
   </g>
   <g id="text_17">
    <!-- Z -->
    <defs>
     <path d="M 5.609375 72.90625 
L 66.890625 72.90625 
L 66.890625 61.53125 
L 27.78125 14.203125 
L 68.015625 14.203125 
L 68.015625 0 
L 4.5 0 
L 4.5 11.375 
L 43.609375 58.6875 
L 5.609375 58.6875 
z
" id="DejaVuSans-Bold-90"/>
    </defs>
    <g transform="translate(425.441477 155.394086)scale(0.12 -0.12)">
     <use xlink:href="#DejaVuSans-Bold-90"/>
    </g>
   </g>
   <g id="Line3DCollection_3">
    <path d="M 373.215388 210.854481 
L 207.02978 174.628633 
L 104.414825 239.43384 
" style="fill:none;stroke:#b0b0b0;stroke-width:0.8;"/>
    <path d="M 374.382954 189.207798 
L 206.742537 153.584048 
L 103.168966 217.330629 
" style="fill:none;stroke:#b0b0b0;stroke-width:0.8;"/>
    <path d="M 375.571323 167.175435 
L 206.450392 132.180384 
L 101.900167 194.820435 
" style="fill:none;stroke:#b0b0b0;stroke-width:0.8;"/>
    <path d="M 376.781056 144.746992 
L 206.153219 110.408369 
L 100.607789 171.891915 
" style="fill:none;stroke:#b0b0b0;stroke-width:0.8;"/>
    <path d="M 378.012733 121.911692 
L 205.850888 88.258413 
L 99.291168 148.533297 
" style="fill:none;stroke:#b0b0b0;stroke-width:0.8;"/>
    <path d="M 379.266958 98.658363 
L 205.543263 65.720589 
L 97.949616 124.732364 
" style="fill:none;stroke:#b0b0b0;stroke-width:0.8;"/>
   </g>
   <g id="xtick_15">
    <g id="line2d_18">
     <path d="M 371.82865 210.552194 
L 375.991757 211.459686 
" style="fill:none;stroke:#000000;stroke-linecap:square;stroke-width:0.8;"/>
    </g>
    <g id="text_18">
     <!-- −2 -->
     <g transform="translate(384.243607 216.496671)scale(0.1 -0.1)">
      <use xlink:href="#DejaVuSans-8722"/>
      <use x="83.789062" xlink:href="#DejaVuSans-50"/>
     </g>
    </g>
   </g>
   <g id="xtick_16">
    <g id="line2d_19">
     <path d="M 372.983567 188.910426 
L 377.184675 189.803166 
" style="fill:none;stroke:#000000;stroke-linecap:square;stroke-width:0.8;"/>
    </g>
    <g id="text_19">
     <!-- −1 -->
     <g transform="translate(385.570621 194.881833)scale(0.1 -0.1)">
      <use xlink:href="#DejaVuSans-8722"/>
      <use x="83.789062" xlink:href="#DejaVuSans-49"/>
     </g>
    </g>
   </g>
   <g id="xtick_17">
    <g id="line2d_20">
     <path d="M 374.159053 166.883203 
L 378.398862 167.760518 
" style="fill:none;stroke:#000000;stroke-linecap:square;stroke-width:0.8;"/>
    </g>
    <g id="text_20">
     <!-- 0 -->
     <g transform="translate(391.111068 172.882763)scale(0.1 -0.1)">
      <use xlink:href="#DejaVuSans-48"/>
     </g>
    </g>
   </g>
   <g id="xtick_18">
    <g id="line2d_21">
     <path d="M 375.355665 144.460134 
L 379.634892 145.321323 
" style="fill:none;stroke:#000000;stroke-linecap:square;stroke-width:0.8;"/>
    </g>
    <g id="text_21">
     <!-- 1 -->
     <g transform="translate(392.485896 150.489126)scale(0.1 -0.1)">
      <use xlink:href="#DejaVuSans-49"/>
     </g>
    </g>
   </g>
   <g id="xtick_19">
    <g id="line2d_22">
     <path d="M 376.573975 121.630451 
L 380.89336 122.474782 
" style="fill:none;stroke:#000000;stroke-linecap:square;stroke-width:0.8;"/>
    </g>
    <g id="text_22">
     <!-- 2 -->
     <g transform="translate(393.885605 127.690208)scale(0.1 -0.1)">
      <use xlink:href="#DejaVuSans-50"/>
     </g>
    </g>
   </g>
   <g id="xtick_20">
    <g id="line2d_23">
     <path d="M 377.81458 98.382994 
L 382.174882 99.209702 
" style="fill:none;stroke:#000000;stroke-linecap:square;stroke-width:0.8;"/>
    </g>
    <g id="text_23">
     <!-- 3 -->
     <g transform="translate(395.310877 104.474909)scale(0.1 -0.1)">
      <use xlink:href="#DejaVuSans-51"/>
     </g>
    </g>
   </g>
  </g>
  <g id="axes_1">
   <g id="line2d_24">
    <path clip-path="url(#pee068bc045)" d="M 277.34869 161.160906 
L 324.550325 171.101343 
" style="fill:none;stroke:#1f77b4;stroke-linecap:square;stroke-width:3;"/>
   </g>
   <g id="line2d_25">
    <path clip-path="url(#pee068bc045)" d="M 324.550325 171.101343 
L 269.809443 208.888037 
" style="fill:none;stroke:#ff7f0e;stroke-linecap:square;stroke-width:3;"/>
   </g>
   <g id="line2d_26">
    <path clip-path="url(#pee068bc045)" d="M 269.809443 208.888037 
L 270.009372 191.869815 
" style="fill:none;stroke:#2ca02c;stroke-linecap:square;stroke-width:3;"/>
   </g>
   <g id="line2d_27">
    <path clip-path="url(#pee068bc045)" d="M 270.009372 191.869815 
L 177.871655 171.702038 
" style="fill:none;stroke:#d62728;stroke-linecap:square;stroke-width:1.5;"/>
   </g>
   <g id="line2d_28">
    <path clip-path="url(#pee068bc045)" d="M 177.871655 171.702038 
L 211.39781 151.058983 
" style="fill:none;stroke:#9467bd;stroke-linecap:square;stroke-width:1.5;"/>
   </g>
   <g id="line2d_29">
    <path clip-path="url(#pee068bc045)" d="M 211.39781 151.058983 
L 211.448161 155.332523 
" style="fill:none;stroke:#8c564b;stroke-linecap:square;stroke-width:1.5;"/>
   </g>
   <g id="line2d_30">
    <path clip-path="url(#pee068bc045)" d="M 211.448161 155.332523 
L 251.531245 163.858048 
" style="fill:none;stroke:#e377c2;stroke-linecap:square;"/>
   </g>
   <g id="line2d_31">
    <path clip-path="url(#pee068bc045)" d="M 251.531245 163.858048 
L 246.168973 167.317346 
" style="fill:none;stroke:#7f7f7f;stroke-linecap:square;"/>
   </g>
   <g id="line2d_32">
    <path clip-path="url(#pee068bc045)" d="M 246.168973 167.317346 
L 246.171522 166.090282 
" style="fill:none;stroke:#bcbd22;stroke-linecap:square;"/>
   </g>
   <g id="line2d_33">
    <path clip-path="url(#pee068bc045)" d="M 246.171522 166.090282 
L 238.337543 164.41719 
" style="fill:none;stroke:#17becf;stroke-linecap:square;stroke-width:0.75;"/>
   </g>
   <g id="line2d_34">
    <path clip-path="url(#pee068bc045)" d="M 238.337543 164.41719 
L 240.509001 163.029733 
" style="fill:none;stroke:#1f77b4;stroke-linecap:square;stroke-width:0.75;"/>
   </g>
   <g id="line2d_35">
    <path clip-path="url(#pee068bc045)" d="M 240.509001 163.029733 
L 240.509063 163.353725 
" style="fill:none;stroke:#ff7f0e;stroke-linecap:square;stroke-width:0.75;"/>
   </g>
   <g id="Path3DCollection_1">
    <defs>
     <path d="M 0 2.236068 
C 0.593012 2.236068 1.161816 2.000462 1.581139 1.581139 
C 2.000462 1.161816 2.236068 0.593012 2.236068 0 
C 2.236068 -0.593012 2.000462 -1.161816 1.581139 -1.581139 
C 1.161816 -2.000462 0.593012 -2.236068 0 -2.236068 
C -0.593012 -2.236068 -1.161816 -2.000462 -1.581139 -1.581139 
C -2.000462 -1.161816 -2.236068 -0.593012 -2.236068 0 
C -2.236068 0.593012 -2.000462 1.161816 -1.581139 1.581139 
C -1.161816 2.000462 -0.593012 2.236068 0 2.236068 
z
" id="m32f3d1cda1" style="stroke:#ff0000;"/>
    </defs>
    <g clip-path="url(#pee068bc045)">
     <use style="fill:#ff0000;stroke:#ff0000;" x="277.34869" xlink:href="#m32f3d1cda1" y="161.160906"/>
    </g>
   </g>
   <g id="Path3DCollection_2">
    <defs>
     <path d="M 0 2.236068 
C 0.593012 2.236068 1.161816 2.000462 1.581139 1.581139 
C 2.000462 1.161816 2.236068 0.593012 2.236068 0 
C 2.236068 -0.593012 2.000462 -1.161816 1.581139 -1.581139 
C 1.161816 -2.000462 0.593012 -2.236068 0 -2.236068 
C -0.593012 -2.236068 -1.161816 -2.000462 -1.581139 -1.581139 
C -2.000462 -1.161816 -2.236068 -0.593012 -2.236068 0 
C -2.236068 0.593012 -2.000462 1.161816 -1.581139 1.581139 
C -1.161816 2.000462 -0.593012 2.236068 0 2.236068 
z
" id="mc9e3efcc44" style="stroke:#ffff00;"/>
    </defs>
    <g clip-path="url(#pee068bc045)">
     <use style="fill:#ffff00;stroke:#ffff00;" x="240.509063" xlink:href="#mc9e3efcc44" y="163.353725"/>
    </g>
   </g>
   <g id="Path3DCollection_3">
    <defs>
     <path d="M 0 2.236068 
C 0.593012 2.236068 1.161816 2.000462 1.581139 1.581139 
C 2.000462 1.161816 2.236068 0.593012 2.236068 0 
C 2.236068 -0.593012 2.000462 -1.161816 1.581139 -1.581139 
C 1.161816 -2.000462 0.593012 -2.236068 0 -2.236068 
C -0.593012 -2.236068 -1.161816 -2.000462 -1.581139 -1.581139 
C -2.000462 -1.161816 -2.236068 -0.593012 -2.236068 0 
C -2.236068 0.593012 -2.000462 1.161816 -1.581139 1.581139 
C -1.161816 2.000462 -0.593012 2.236068 0 2.236068 
z
" id="mbfef672d17" style="stroke:#008000;"/>
    </defs>
    <g clip-path="url(#pee068bc045)">
     <use style="fill:#008000;stroke:#008000;" x="242.50757" xlink:href="#mbfef672d17" y="163.985489"/>
    </g>
   </g>
   <g id="Poly3DCollection_1">
    <path clip-path="url(#pee068bc045)" d="M 200.15247 82.702581 
L 218.653171 95.43009 
L 228.24565 85.343513 
L 209.836313 72.699641 
z
" style="fill:#494949;fill-opacity:0.2;"/>
    <path clip-path="url(#pee068bc045)" d="M 218.653171 95.43009 
L 237.200334 108.189562 
L 246.700961 98.01896 
L 228.24565 85.343513 
z
" style="fill:#494949;fill-opacity:0.2;"/>
    <path clip-path="url(#pee068bc045)" d="M 237.200334 108.189562 
L 255.794136 120.981119 
L 265.20242 110.726103 
L 246.700961 98.01896 
z
" style="fill:#494949;fill-opacity:0.2;"/>
    <path clip-path="url(#pee068bc045)" d="M 255.794136 120.981119 
L 274.434752 133.804881 
L 283.750199 123.465059 
L 265.20242 110.726103 
z
" style="fill:#494949;fill-opacity:0.2;"/>
    <path clip-path="url(#pee068bc045)" d="M 274.434752 133.804881 
L 293.122359 146.660971 
L 302.344472 136.235949 
L 283.750199 123.465059 
z
" style="fill:#494949;fill-opacity:0.2;"/>
    <path clip-path="url(#pee068bc045)" d="M 190.359253 92.818501 
L 208.952212 105.630734 
L 218.653171 95.43009 
L 200.15247 82.702581 
z
" style="fill:#494949;fill-opacity:0.2;"/>
    <path clip-path="url(#pee068bc045)" d="M 293.122359 146.660971 
L 311.857136 159.549511 
L 320.985415 149.038891 
L 302.344472 136.235949 
z
" style="fill:#494949;fill-opacity:0.2;"/>
    <path clip-path="url(#pee068bc045)" d="M 208.952212 105.630734 
L 227.592131 118.475326 
L 237.200334 108.189562 
L 218.653171 95.43009 
z
" style="fill:#494949;fill-opacity:0.2;"/>
    <path clip-path="url(#pee068bc045)" d="M 311.857136 159.549511 
L 330.63926 172.470624 
L 339.673204 161.874009 
L 320.985415 149.038891 
z
" style="fill:#494949;fill-opacity:0.2;"/>
    <path clip-path="url(#pee068bc045)" d="M 227.592131 118.475326 
L 246.279187 131.352399 
L 255.794136 120.981119 
L 237.200334 108.189562 
z
" style="fill:#494949;fill-opacity:0.2;"/>
    <path clip-path="url(#pee068bc045)" d="M 330.63926 172.470624 
L 349.468912 185.424434 
L 358.408015 174.741422 
L 339.673204 161.874009 
z
" style="fill:#494949;fill-opacity:0.2;"/>
    <path clip-path="url(#pee068bc045)" d="M 246.279187 131.352399 
L 265.013558 144.262078 
L 274.434752 133.804881 
L 255.794136 120.981119 
z
" style="fill:#494949;fill-opacity:0.2;"/>
    <path clip-path="url(#pee068bc045)" d="M 265.013558 144.262078 
L 283.795426 157.204486 
L 293.122359 146.660971 
L 274.434752 133.804881 
z
" style="fill:#494949;fill-opacity:0.2;"/>
    <path clip-path="url(#pee068bc045)" d="M 180.454797 103.049323 
L 199.140924 115.947391 
L 208.952212 105.630734 
L 190.359253 92.818501 
z
" style="fill:#494949;fill-opacity:0.2;"/>
    <path clip-path="url(#pee068bc045)" d="M 283.795426 157.204486 
L 302.624971 170.179748 
L 311.857136 159.549511 
L 293.122359 146.660971 
z
" style="fill:#494949;fill-opacity:0.2;"/>
    <path clip-path="url(#pee068bc045)" d="M 199.140924 115.947391 
L 217.874514 128.878219 
L 227.592131 118.475326 
L 208.952212 105.630734 
z
" style="fill:#494949;fill-opacity:0.2;"/>
    <path clip-path="url(#pee068bc045)" d="M 302.624971 170.179748 
L 321.502374 183.187988 
L 330.63926 172.470624 
L 311.857136 159.549511 
z
" style="fill:#494949;fill-opacity:0.2;"/>
    <path clip-path="url(#pee068bc045)" d="M 217.874514 128.878219 
L 236.655747 141.841934 
L 246.279187 131.352399 
L 227.592131 118.475326 
z
" style="fill:#494949;fill-opacity:0.2;"/>
    <path clip-path="url(#pee068bc045)" d="M 321.502374 183.187988 
L 340.427819 196.229333 
L 349.468912 185.424434 
L 330.63926 172.470624 
z
" style="fill:#494949;fill-opacity:0.2;"/>
    <path clip-path="url(#pee068bc045)" d="M 236.655747 141.841934 
L 255.484807 154.83866 
L 265.013558 144.262078 
L 246.279187 131.352399 
z
" style="fill:#494949;fill-opacity:0.2;"/>
    <path clip-path="url(#pee068bc045)" d="M 255.484807 154.83866 
L 274.361876 167.868525 
L 283.795426 157.204486 
L 265.013558 144.262078 
z
" style="fill:#494949;fill-opacity:0.2;"/>
    <path clip-path="url(#pee068bc045)" d="M 170.437197 113.397019 
L 189.217412 126.382051 
L 199.140924 115.947391 
L 180.454797 103.049323 
z
" style="fill:#494949;fill-opacity:0.2;"/>
    <path clip-path="url(#pee068bc045)" d="M 274.361876 167.868525 
L 293.287137 180.931655 
L 302.624971 170.179748 
L 283.795426 157.204486 
z
" style="fill:#494949;fill-opacity:0.2;"/>
    <path clip-path="url(#pee068bc045)" d="M 189.217412 126.382051 
L 208.045603 139.400255 
L 217.874514 128.878219 
L 199.140924 115.947391 
z
" style="fill:#494949;fill-opacity:0.2;"/>
    <path clip-path="url(#pee068bc045)" d="M 293.287137 180.931655 
L 312.260776 194.028177 
L 321.502374 183.187988 
L 302.624971 170.179748 
z
" style="fill:#494949;fill-opacity:0.2;"/>
    <path clip-path="url(#pee068bc045)" d="M 208.045603 139.400255 
L 226.921952 152.451756 
L 236.655747 141.841934 
L 217.874514 128.878219 
z
" style="fill:#494949;fill-opacity:0.2;"/>
    <path clip-path="url(#pee068bc045)" d="M 312.260776 194.028177 
L 331.282979 207.15822 
L 340.427819 196.229333 
L 321.502374 183.187988 
z
" style="fill:#494949;fill-opacity:0.2;"/>
    <path clip-path="url(#pee068bc045)" d="M 226.921952 152.451756 
L 245.846646 165.536684 
L 255.484807 154.83866 
L 236.655747 141.841934 
z
" style="fill:#494949;fill-opacity:0.2;"/>
    <path clip-path="url(#pee068bc045)" d="M 245.846646 165.536684 
L 264.81987 178.655167 
L 274.361876 167.868525 
L 255.484807 154.83866 
z
" style="fill:#494949;fill-opacity:0.2;"/>
    <path clip-path="url(#pee068bc045)" d="M 160.304503 123.863601 
L 179.179741 136.936752 
L 189.217412 126.382051 
L 170.437197 113.397019 
z
" style="fill:#494949;fill-opacity:0.2;"/>
    <path clip-path="url(#pee068bc045)" d="M 264.81987 178.655167 
L 283.841811 191.807333 
L 293.287137 180.931655 
L 274.361876 167.868525 
z
" style="fill:#494949;fill-opacity:0.2;"/>
    <path clip-path="url(#pee068bc045)" d="M 179.179741 136.936752 
L 198.103475 150.043491 
L 208.045603 139.400255 
L 189.217412 126.382051 
z
" style="fill:#494949;fill-opacity:0.2;"/>
    <path clip-path="url(#pee068bc045)" d="M 283.841811 191.807333 
L 302.912657 204.993313 
L 312.260776 194.028177 
L 293.287137 180.931655 
z
" style="fill:#494949;fill-opacity:0.2;"/>
    <path clip-path="url(#pee068bc045)" d="M 198.103475 150.043491 
L 217.075892 163.183948 
L 226.921952 152.451756 
L 208.045603 139.400255 
z
" style="fill:#494949;fill-opacity:0.2;"/>
    <path clip-path="url(#pee068bc045)" d="M 302.912657 204.993313 
L 322.032596 218.213238 
L 331.282979 207.15822 
L 312.260776 194.028177 
z
" style="fill:#494949;fill-opacity:0.2;"/>
    <path clip-path="url(#pee068bc045)" d="M 217.075892 163.183948 
L 236.097179 176.358253 
L 245.846646 165.536684 
L 226.921952 152.451756 
z
" style="fill:#494949;fill-opacity:0.2;"/>
    <path clip-path="url(#pee068bc045)" d="M 236.097179 176.358253 
L 255.167527 189.566537 
L 264.81987 178.655167 
L 245.846646 165.536684 
z
" style="fill:#494949;fill-opacity:0.2;"/>
    <path clip-path="url(#pee068bc045)" d="M 150.054719 134.451131 
L 169.025929 147.613575 
L 179.179741 136.936752 
L 160.304503 123.863601 
z
" style="fill:#494949;fill-opacity:0.2;"/>
    <path clip-path="url(#pee068bc045)" d="M 255.167527 189.566537 
L 274.287124 202.808932 
L 283.841811 191.807333 
L 264.81987 178.655167 
z
" style="fill:#494949;fill-opacity:0.2;"/>
    <path clip-path="url(#pee068bc045)" d="M 169.025929 147.613575 
L 188.046164 160.810033 
L 198.103475 150.043491 
L 179.179741 136.936752 
z
" style="fill:#494949;fill-opacity:0.2;"/>
    <path clip-path="url(#pee068bc045)" d="M 274.287124 202.808932 
L 293.456162 216.085571 
L 302.912657 204.993313 
L 283.841811 191.807333 
z
" style="fill:#494949;fill-opacity:0.2;"/>
    <path clip-path="url(#pee068bc045)" d="M 188.046164 160.810033 
L 207.115613 174.040637 
L 217.075892 163.183948 
L 198.103475 150.043491 
z
" style="fill:#494949;fill-opacity:0.2;"/>
    <path clip-path="url(#pee068bc045)" d="M 293.456162 216.085571 
L 312.674833 229.396586 
L 322.032596 218.213238 
L 302.912657 204.993313 
z
" style="fill:#494949;fill-opacity:0.2;"/>
    <path clip-path="url(#pee068bc045)" d="M 207.115613 174.040637 
L 226.234468 187.305519 
L 236.097179 176.358253 
L 217.075892 163.183948 
z
" style="fill:#494949;fill-opacity:0.2;"/>
    <path clip-path="url(#pee068bc045)" d="M 226.234468 187.305519 
L 245.402922 200.604813 
L 255.167527 189.566537 
L 236.097179 176.358253 
z
" style="fill:#494949;fill-opacity:0.2;"/>
    <path clip-path="url(#pee068bc045)" d="M 139.685805 145.161717 
L 158.753949 158.414654 
L 169.025929 147.613575 
L 150.054719 134.451131 
z
" style="fill:#494949;fill-opacity:0.2;"/>
    <path clip-path="url(#pee068bc045)" d="M 245.402922 200.604813 
L 264.621167 213.938653 
L 274.287124 202.808932 
L 255.167527 189.566537 
z
" style="fill:#494949;fill-opacity:0.2;"/>
    <path clip-path="url(#pee068bc045)" d="M 158.753949 158.414654 
L 177.871655 171.702038 
L 188.046164 160.810033 
L 169.025929 147.613575 
z
" style="fill:#494949;fill-opacity:0.2;"/>
    <path clip-path="url(#pee068bc045)" d="M 264.621167 213.938653 
L 283.889398 227.307173 
L 293.456162 216.085571 
L 274.287124 202.808932 
z
" style="fill:#494949;fill-opacity:0.2;"/>
    <path clip-path="url(#pee068bc045)" d="M 177.871655 171.702038 
L 197.039116 185.024003 
L 207.115613 174.040637 
L 188.046164 160.810033 
z
" style="fill:#494949;fill-opacity:0.2;"/>
    <path clip-path="url(#pee068bc045)" d="M 283.889398 227.307173 
L 303.20781 240.71051 
L 312.674833 229.396586 
L 293.456162 216.085571 
z
" style="fill:#494949;fill-opacity:0.2;"/>
    <path clip-path="url(#pee068bc045)" d="M 197.039116 185.024003 
L 216.256528 198.380686 
L 226.234468 187.305519 
L 207.115613 174.040637 
z
" style="fill:#494949;fill-opacity:0.2;"/>
    <path clip-path="url(#pee068bc045)" d="M 216.256528 198.380686 
L 235.524085 211.77222 
L 245.402922 200.604813 
L 226.234468 187.305519 
z
" style="fill:#494949;fill-opacity:0.2;"/>
    <path clip-path="url(#pee068bc045)" d="M 129.195671 155.997518 
L 148.361725 169.34217 
L 158.753949 158.414654 
L 139.685805 145.161717 
z
" style="fill:#494949;fill-opacity:0.2;"/>
    <path clip-path="url(#pee068bc045)" d="M 235.524085 211.77222 
L 254.841984 225.198745 
L 264.621167 213.938653 
L 245.402922 200.604813 
z
" style="fill:#494949;fill-opacity:0.2;"/>
    <path clip-path="url(#pee068bc045)" d="M 148.361725 169.34217 
L 167.577888 182.72171 
L 177.871655 171.702038 
L 158.753949 158.414654 
z
" style="fill:#494949;fill-opacity:0.2;"/>
    <path clip-path="url(#pee068bc045)" d="M 254.841984 225.198745 
L 274.210423 238.660395 
L 283.889398 227.307173 
L 264.621167 213.938653 
z
" style="fill:#494949;fill-opacity:0.2;"/>
    <path clip-path="url(#pee068bc045)" d="M 167.577888 182.72171 
L 186.844356 196.136277 
L 197.039116 185.024003 
L 177.871655 171.702038 
z
" style="fill:#494949;fill-opacity:0.2;"/>
    <path clip-path="url(#pee068bc045)" d="M 274.210423 238.660395 
L 293.6296 252.157311 
L 303.20781 240.71051 
L 283.889398 227.307173 
z
" style="fill:#494949;fill-opacity:0.2;"/>
    <path clip-path="url(#pee068bc045)" d="M 186.844356 196.136277 
L 206.161327 209.586007 
L 216.256528 198.380686 
L 197.039116 185.024003 
z
" style="fill:#494949;fill-opacity:0.2;"/>
    <path clip-path="url(#pee068bc045)" d="M 206.161327 209.586007 
L 225.529 223.071039 
L 235.524085 211.77222 
L 216.256528 198.380686 
z
" style="fill:#494949;fill-opacity:0.2;"/>
    <path clip-path="url(#pee068bc045)" d="M 118.582179 166.96074 
L 137.847135 180.398355 
L 148.361725 169.34217 
L 129.195671 155.997518 
z
" style="fill:#494949;fill-opacity:0.2;"/>
    <path clip-path="url(#pee068bc045)" d="M 225.529 223.071039 
L 244.947575 236.591513 
L 254.841984 225.198745 
L 235.524085 211.77222 
z
" style="fill:#494949;fill-opacity:0.2;"/>
    <path clip-path="url(#pee068bc045)" d="M 137.847135 180.398355 
L 157.162754 193.871309 
L 167.577888 182.72171 
L 148.361725 169.34217 
z
" style="fill:#494949;fill-opacity:0.2;"/>
    <path clip-path="url(#pee068bc045)" d="M 244.947575 236.591513 
L 264.417252 250.147567 
L 274.210423 238.660395 
L 254.841984 225.198745 
z
" style="fill:#494949;fill-opacity:0.2;"/>
    <path clip-path="url(#pee068bc045)" d="M 157.162754 193.871309 
L 176.529238 207.379741 
L 186.844356 196.136277 
L 167.577888 182.72171 
z
" style="fill:#494949;fill-opacity:0.2;"/>
    <path clip-path="url(#pee068bc045)" d="M 264.417252 250.147567 
L 283.938234 263.739343 
L 293.6296 252.157311 
L 274.210423 238.660395 
z
" style="fill:#494949;fill-opacity:0.2;"/>
    <path clip-path="url(#pee068bc045)" d="M 176.529238 207.379741 
L 195.946786 220.923792 
L 206.161327 209.586007 
L 186.844356 196.136277 
z
" style="fill:#494949;fill-opacity:0.2;"/>
    <path clip-path="url(#pee068bc045)" d="M 195.946786 220.923792 
L 215.415603 234.503603 
L 225.529 223.071039 
L 206.161327 209.586007 
z
" style="fill:#494949;fill-opacity:0.2;"/>
    <path clip-path="url(#pee068bc045)" d="M 215.415603 234.503603 
L 234.93589 248.119315 
L 244.947575 236.591513 
L 225.529 223.071039 
z
" style="fill:#494949;fill-opacity:0.2;"/>
    <path clip-path="url(#pee068bc045)" d="M 234.93589 248.119315 
L 254.507852 261.771072 
L 264.417252 250.147567 
L 244.947575 236.591513 
z
" style="fill:#494949;fill-opacity:0.2;"/>
    <path clip-path="url(#pee068bc045)" d="M 254.507852 261.771072 
L 274.131696 275.459017 
L 283.938234 263.739343 
L 264.417252 250.147567 
z
" style="fill:#494949;fill-opacity:0.2;"/>
   </g>
   <g id="Poly3DCollection_2">
    <path clip-path="url(#pee068bc045)" d="M 200.687816 116.523466 
L 218.878535 121.333761 
L 228.379012 112.319354 
L 210.255819 107.576172 
z
" style="fill:#6b6b6b;fill-opacity:0.2;"/>
    <path clip-path="url(#pee068bc045)" d="M 218.878535 121.333761 
L 237.227007 126.185772 
L 246.658429 117.103423 
L 228.379012 112.319354 
z
" style="fill:#6b6b6b;fill-opacity:0.2;"/>
    <path clip-path="url(#pee068bc045)" d="M 191.004701 125.578404 
L 209.263263 130.457091 
L 218.878535 121.333761 
L 200.687816 116.523466 
z
" style="fill:#6b6b6b;fill-opacity:0.2;"/>
    <path clip-path="url(#pee068bc045)" d="M 237.227007 126.185772 
L 255.735292 131.080043 
L 265.0961 121.92891 
L 246.658429 117.103423 
z
" style="fill:#6b6b6b;fill-opacity:0.2;"/>
    <path clip-path="url(#pee068bc045)" d="M 209.263263 130.457091 
L 227.681126 135.378342 
L 237.227007 126.185772 
L 218.878535 121.333761 
z
" style="fill:#6b6b6b;fill-opacity:0.2;"/>
    <path clip-path="url(#pee068bc045)" d="M 181.204385 134.742941 
L 199.531102 139.691329 
L 209.263263 130.457091 
L 191.004701 125.578404 
z
" style="fill:#6b6b6b;fill-opacity:0.2;"/>
    <path clip-path="url(#pee068bc045)" d="M 255.735292 131.080043 
L 274.405488 136.017129 
L 283.694088 126.796355 
L 265.0961 121.92891 
z
" style="fill:#6b6b6b;fill-opacity:0.2;"/>
    <path clip-path="url(#pee068bc045)" d="M 227.681126 135.378342 
L 246.260385 140.342719 
L 255.735292 131.080043 
L 237.227007 126.185772 
z
" style="fill:#6b6b6b;fill-opacity:0.2;"/>
    <path clip-path="url(#pee068bc045)" d="M 199.531102 139.691329 
L 218.018691 144.683153 
L 227.681126 135.378342 
L 209.263263 130.457091 
z
" style="fill:#6b6b6b;fill-opacity:0.2;"/>
    <path clip-path="url(#pee068bc045)" d="M 274.405488 136.017129 
L 293.239728 140.997595 
L 302.454494 131.706308 
L 283.694088 126.796355 
z
" style="fill:#6b6b6b;fill-opacity:0.2;"/>
    <path clip-path="url(#pee068bc045)" d="M 171.284727 144.019077 
L 189.679908 149.03851 
L 199.531102 139.691329 
L 181.204385 134.742941 
z
" style="fill:#6b6b6b;fill-opacity:0.2;"/>
    <path clip-path="url(#pee068bc045)" d="M 246.260385 140.342719 
L 265.00317 145.35079 
L 274.405488 136.017129 
L 255.735292 131.080043 
z
" style="fill:#6b6b6b;fill-opacity:0.2;"/>
    <path clip-path="url(#pee068bc045)" d="M 218.018691 144.683153 
L 236.66928 149.71899 
L 246.260385 140.342719 
L 227.681126 135.378342 
z
" style="fill:#6b6b6b;fill-opacity:0.2;"/>
    <path clip-path="url(#pee068bc045)" d="M 293.239728 140.997595 
L 312.240184 146.022014 
L 321.379455 136.659328 
L 302.454494 131.706308 
z
" style="fill:#6b6b6b;fill-opacity:0.2;"/>
    <path clip-path="url(#pee068bc045)" d="M 189.679908 149.03851 
L 208.237553 154.102274 
L 218.018691 144.683153 
L 199.531102 139.691329 
z
" style="fill:#6b6b6b;fill-opacity:0.2;"/>
    <path clip-path="url(#pee068bc045)" d="M 265.00317 145.35079 
L 283.91165 150.403134 
L 293.239728 140.997595 
L 274.405488 136.017129 
z
" style="fill:#6b6b6b;fill-opacity:0.2;"/>
    <path clip-path="url(#pee068bc045)" d="M 161.243534 153.408864 
L 179.707483 158.500719 
L 189.679908 149.03851 
L 171.284727 144.019077 
z
" style="fill:#6b6b6b;fill-opacity:0.2;"/>
    <path clip-path="url(#pee068bc045)" d="M 236.66928 149.71899 
L 255.485034 154.799422 
L 265.00317 145.35079 
L 246.260385 140.342719 
z
" style="fill:#6b6b6b;fill-opacity:0.2;"/>
    <path clip-path="url(#pee068bc045)" d="M 312.240184 146.022014 
L 331.409067 151.090971 
L 340.471144 141.655984 
L 321.379455 136.659328 
z
" style="fill:#6b6b6b;fill-opacity:0.2;"/>
    <path clip-path="url(#pee068bc045)" d="M 208.237553 154.102274 
L 226.959826 159.210959 
L 236.66928 149.71899 
L 218.018691 144.683153 
z
" style="fill:#6b6b6b;fill-opacity:0.2;"/>
    <path clip-path="url(#pee068bc045)" d="M 283.91165 150.403134 
L 302.988032 155.500342 
L 312.240184 146.022014 
L 293.239728 140.997595 
z
" style="fill:#6b6b6b;fill-opacity:0.2;"/>
    <path clip-path="url(#pee068bc045)" d="M 179.707483 158.500719 
L 198.335513 163.637822 
L 208.237553 154.102274 
L 189.679908 149.03851 
z
" style="fill:#6b6b6b;fill-opacity:0.2;"/>
    <path clip-path="url(#pee068bc045)" d="M 255.485034 154.799422 
L 274.468157 159.925046 
L 283.91165 150.403134 
L 265.00317 145.35079 
z
" style="fill:#6b6b6b;fill-opacity:0.2;"/>
    <path clip-path="url(#pee068bc045)" d="M 151.078558 162.914404 
L 169.611576 168.080092 
L 179.707483 158.500719 
L 161.243534 153.408864 
z
" style="fill:#6b6b6b;fill-opacity:0.2;"/>
    <path clip-path="url(#pee068bc045)" d="M 331.409067 151.090971 
L 350.748625 156.205062 
L 359.731776 146.696856 
L 340.471144 141.655984 
z
" style="fill:#6b6b6b;fill-opacity:0.2;"/>
    <path clip-path="url(#pee068bc045)" d="M 226.959826 159.210959 
L 245.848927 164.365166 
L 255.485034 154.799422 
L 236.66928 149.71899 
z
" style="fill:#6b6b6b;fill-opacity:0.2;"/>
    <path clip-path="url(#pee068bc045)" d="M 302.988032 155.500342 
L 322.234562 160.643013 
L 331.409067 151.090971 
L 312.240184 146.022014 
z
" style="fill:#6b6b6b;fill-opacity:0.2;"/>
    <path clip-path="url(#pee068bc045)" d="M 198.335513 163.637822 
L 217.12982 168.82078 
L 226.959826 159.210959 
L 208.237553 154.102274 
z
" style="fill:#6b6b6b;fill-opacity:0.2;"/>
    <path clip-path="url(#pee068bc045)" d="M 274.468157 159.925046 
L 293.620893 165.096467 
L 302.988032 155.500342 
L 283.91165 150.403134 
z
" style="fill:#6b6b6b;fill-opacity:0.2;"/>
    <path clip-path="url(#pee068bc045)" d="M 169.611576 168.080092 
L 188.310313 173.291971 
L 198.335513 163.637822 
L 179.707483 158.500719 
z
" style="fill:#6b6b6b;fill-opacity:0.2;"/>
    <path clip-path="url(#pee068bc045)" d="M 245.848927 164.365166 
L 264.907094 169.565505 
L 274.468157 159.925046 
L 255.485034 154.799422 
z
" style="fill:#6b6b6b;fill-opacity:0.2;"/>
    <path clip-path="url(#pee068bc045)" d="M 140.787496 172.53785 
L 159.389879 177.77882 
L 169.611576 168.080092 
L 151.078558 162.914404 
z
" style="fill:#6b6b6b;fill-opacity:0.2;"/>
    <path clip-path="url(#pee068bc045)" d="M 322.234562 160.643013 
L 341.653527 165.831759 
L 350.748625 156.205062 
L 331.409067 151.090971 
z
" style="fill:#6b6b6b;fill-opacity:0.2;"/>
    <path clip-path="url(#pee068bc045)" d="M 217.12982 168.82078 
L 236.092641 174.050209 
L 245.848927 164.365166 
L 226.959826 159.210959 
z
" style="fill:#6b6b6b;fill-opacity:0.2;"/>
    <path clip-path="url(#pee068bc045)" d="M 293.620893 165.096467 
L 312.945523 170.314301 
L 322.234562 160.643013 
L 302.988032 155.500342 
z
" style="fill:#6b6b6b;fill-opacity:0.2;"/>
    <path clip-path="url(#pee068bc045)" d="M 188.310313 173.291971 
L 207.177001 178.550662 
L 217.12982 168.82078 
L 198.335513 163.637822 
z
" style="fill:#6b6b6b;fill-opacity:0.2;"/>
    <path clip-path="url(#pee068bc045)" d="M 264.907094 169.565505 
L 284.136609 174.8126 
L 293.620893 165.096467 
L 274.468157 159.925046 
z
" style="fill:#6b6b6b;fill-opacity:0.2;"/>
    <path clip-path="url(#pee068bc045)" d="M 159.389879 177.77882 
L 178.159643 183.066947 
L 188.310313 173.291971 
L 169.611576 168.080092 
z
" style="fill:#6b6b6b;fill-opacity:0.2;"/>
    <path clip-path="url(#pee068bc045)" d="M 236.092641 174.050209 
L 255.226252 179.326738 
L 264.907094 169.565505 
L 245.848927 164.365166 
z
" style="fill:#6b6b6b;fill-opacity:0.2;"/>
    <path clip-path="url(#pee068bc045)" d="M 130.367987 182.28141 
L 149.040027 187.599147 
L 159.389879 177.77882 
L 140.787496 172.53785 
z
" style="fill:#6b6b6b;fill-opacity:0.2;"/>
    <path clip-path="url(#pee068bc045)" d="M 312.945523 170.314301 
L 332.444374 175.579176 
L 341.653527 165.831759 
L 322.234562 160.643013 
z
" style="fill:#6b6b6b;fill-opacity:0.2;"/>
    <path clip-path="url(#pee068bc045)" d="M 207.177001 178.550662 
L 226.213914 183.8568 
L 236.092641 174.050209 
L 217.12982 168.82078 
z
" style="fill:#6b6b6b;fill-opacity:0.2;"/>
    <path clip-path="url(#pee068bc045)" d="M 284.136609 174.8126 
L 303.539793 180.107083 
L 312.945523 170.314301 
L 293.620893 165.096467 
z
" style="fill:#6b6b6b;fill-opacity:0.2;"/>
    <path clip-path="url(#pee068bc045)" d="M 178.159643 183.066947 
L 197.099055 188.40287 
L 207.177001 178.550662 
L 188.310313 173.291971 
z
" style="fill:#6b6b6b;fill-opacity:0.2;"/>
    <path clip-path="url(#pee068bc045)" d="M 255.226252 179.326738 
L 274.532971 184.651006 
L 284.136609 174.8126 
L 264.907094 169.565505 
z
" style="fill:#6b6b6b;fill-opacity:0.2;"/>
    <path clip-path="url(#pee068bc045)" d="M 149.040027 187.599147 
L 167.881131 192.965032 
L 178.159643 183.066947 
L 159.389879 177.77882 
z
" style="fill:#6b6b6b;fill-opacity:0.2;"/>
    <path clip-path="url(#pee068bc045)" d="M 226.213914 183.8568 
L 245.423365 189.211029 
L 255.226252 179.326738 
L 236.092641 174.050209 
z
" style="fill:#6b6b6b;fill-opacity:0.2;"/>
    <path clip-path="url(#pee068bc045)" d="M 119.817613 192.147346 
L 138.559594 197.543373 
L 149.040027 187.599147 
L 130.367987 182.28141 
z
" style="fill:#6b6b6b;fill-opacity:0.2;"/>
    <path clip-path="url(#pee068bc045)" d="M 303.539793 180.107083 
L 323.119009 185.449599 
L 332.444374 175.579176 
L 312.945523 170.314301 
z
" style="fill:#6b6b6b;fill-opacity:0.2;"/>
    <path clip-path="url(#pee068bc045)" d="M 197.099055 188.40287 
L 216.210427 193.78724 
L 226.213914 183.8568 
L 207.177001 178.550662 
z
" style="fill:#6b6b6b;fill-opacity:0.2;"/>
    <path clip-path="url(#pee068bc045)" d="M 274.532971 184.651006 
L 294.015158 190.023662 
L 303.539793 180.107083 
L 284.136609 174.8126 
z
" style="fill:#6b6b6b;fill-opacity:0.2;"/>
    <path clip-path="url(#pee068bc045)" d="M 167.881131 192.965032 
L 186.893606 198.379724 
L 197.099055 188.40287 
L 178.159643 183.066947 
z
" style="fill:#6b6b6b;fill-opacity:0.2;"/>
    <path clip-path="url(#pee068bc045)" d="M 245.423365 189.211029 
L 264.80771 194.614007 
L 274.532971 184.651006 
L 255.226252 179.326738 
z
" style="fill:#6b6b6b;fill-opacity:0.2;"/>
    <path clip-path="url(#pee068bc045)" d="M 138.559594 197.543373 
L 157.472348 202.988568 
L 167.881131 192.965032 
L 149.040027 187.599147 
z
" style="fill:#6b6b6b;fill-opacity:0.2;"/>
    <path clip-path="url(#pee068bc045)" d="M 216.210427 193.78724 
L 235.496111 199.22072 
L 245.423365 189.211029 
L 226.213914 183.8568 
z
" style="fill:#6b6b6b;fill-opacity:0.2;"/>
    <path clip-path="url(#pee068bc045)" d="M 294.015158 190.023662 
L 313.675217 195.445371 
L 323.119009 185.449599 
L 303.539793 180.107083 
z
" style="fill:#6b6b6b;fill-opacity:0.2;"/>
    <path clip-path="url(#pee068bc045)" d="M 186.893606 198.379724 
L 206.079801 203.84389 
L 216.210427 193.78724 
L 197.099055 188.40287 
z
" style="fill:#6b6b6b;fill-opacity:0.2;"/>
    <path clip-path="url(#pee068bc045)" d="M 264.80771 194.614007 
L 284.36935 200.066401 
L 294.015158 190.023662 
L 274.532971 184.651006 
z
" style="fill:#6b6b6b;fill-opacity:0.2;"/>
    <path clip-path="url(#pee068bc045)" d="M 157.472348 202.988568 
L 176.55822 208.483605 
L 186.893606 198.379724 
L 167.881131 192.965032 
z
" style="fill:#6b6b6b;fill-opacity:0.2;"/>
    <path clip-path="url(#pee068bc045)" d="M 235.496111 199.22072 
L 254.958502 204.703986 
L 264.80771 194.614007 
L 245.423365 189.211029 
z
" style="fill:#6b6b6b;fill-opacity:0.2;"/>
    <path clip-path="url(#pee068bc045)" d="M 206.079801 203.84389 
L 225.442107 209.358213 
L 235.496111 199.22072 
L 216.210427 193.78724 
z
" style="fill:#6b6b6b;fill-opacity:0.2;"/>
    <path clip-path="url(#pee068bc045)" d="M 284.36935 200.066401 
L 304.110728 205.568894 
L 313.675217 195.445371 
L 294.015158 190.023662 
z
" style="fill:#6b6b6b;fill-opacity:0.2;"/>
    <path clip-path="url(#pee068bc045)" d="M 176.55822 208.483605 
L 195.819597 214.029172 
L 206.079801 203.84389 
L 186.893606 198.379724 
z
" style="fill:#6b6b6b;fill-opacity:0.2;"/>
    <path clip-path="url(#pee068bc045)" d="M 254.958502 204.703986 
L 274.600041 210.237723 
L 284.36935 200.066401 
L 264.80771 194.614007 
z
" style="fill:#6b6b6b;fill-opacity:0.2;"/>
    <path clip-path="url(#pee068bc045)" d="M 225.442107 209.358213 
L 244.982962 214.923385 
L 254.958502 204.703986 
L 235.496111 199.22072 
z
" style="fill:#6b6b6b;fill-opacity:0.2;"/>
    <path clip-path="url(#pee068bc045)" d="M 195.819597 214.029172 
L 215.258912 219.62597 
L 225.442107 209.358213 
L 206.079801 203.84389 
z
" style="fill:#6b6b6b;fill-opacity:0.2;"/>
    <path clip-path="url(#pee068bc045)" d="M 274.600041 210.237723 
L 294.423213 215.822633 
L 304.110728 205.568894 
L 284.36935 200.066401 
z
" style="fill:#6b6b6b;fill-opacity:0.2;"/>
    <path clip-path="url(#pee068bc045)" d="M 244.982962 214.923385 
L 264.704844 220.540113 
L 274.600041 210.237723 
L 254.958502 204.703986 
z
" style="fill:#6b6b6b;fill-opacity:0.2;"/>
    <path clip-path="url(#pee068bc045)" d="M 215.258912 219.62597 
L 234.878642 225.274711 
L 244.982962 214.923385 
L 225.442107 209.358213 
z
" style="fill:#6b6b6b;fill-opacity:0.2;"/>
    <path clip-path="url(#pee068bc045)" d="M 264.704844 220.540113 
L 284.610283 226.209118 
L 294.423213 215.822633 
L 274.600041 210.237723 
z
" style="fill:#6b6b6b;fill-opacity:0.2;"/>
    <path clip-path="url(#pee068bc045)" d="M 234.878642 225.274711 
L 254.681311 230.976122 
L 264.704844 220.540113 
L 244.982962 214.923385 
z
" style="fill:#6b6b6b;fill-opacity:0.2;"/>
    <path clip-path="url(#pee068bc045)" d="M 254.681311 230.976122 
L 274.669487 236.730942 
L 284.610283 226.209118 
L 264.704844 220.540113 
z
" style="fill:#6b6b6b;fill-opacity:0.2;"/>
   </g>
   <g id="Poly3DCollection_3">
    <path clip-path="url(#pee068bc045)" d="M 200.972946 134.536775 
L 219.022851 137.921579 
L 228.480719 132.89213 
L 210.52021 129.556823 
z
" style="fill:#5d5d5d;fill-opacity:0.2;"/>
    <path clip-path="url(#pee068bc045)" d="M 219.022851 137.921579 
L 237.249466 141.339519 
L 246.615737 136.259844 
L 228.480719 132.89213 
z
" style="fill:#5d5d5d;fill-opacity:0.2;"/>
    <path clip-path="url(#pee068bc045)" d="M 191.280809 139.592296 
L 209.420761 143.02772 
L 219.022851 137.921579 
L 200.972946 134.536775 
z
" style="fill:#5d5d5d;fill-opacity:0.2;"/>
    <path clip-path="url(#pee068bc045)" d="M 237.249466 141.339519 
L 255.655401 144.791087 
L 264.92782 139.66044 
L 246.615737 136.259844 
z
" style="fill:#5d5d5d;fill-opacity:0.2;"/>
    <path clip-path="url(#pee068bc045)" d="M 209.420761 143.02772 
L 227.739666 146.497036 
L 237.249466 141.339519 
L 219.022851 137.921579 
z
" style="fill:#5d5d5d;fill-opacity:0.2;"/>
    <path clip-path="url(#pee068bc045)" d="M 255.655401 144.791087 
L 274.243314 148.27678 
L 283.419573 143.0944 
L 264.92782 139.66044 
z
" style="fill:#5d5d5d;fill-opacity:0.2;"/>
    <path clip-path="url(#pee068bc045)" d="M 181.440475 144.725117 
L 199.671125 148.212323 
L 209.420761 143.02772 
L 191.280809 139.592296 
z
" style="fill:#5d5d5d;fill-opacity:0.2;"/>
    <path clip-path="url(#pee068bc045)" d="M 227.739666 146.497036 
L 246.240187 150.000747 
L 255.655401 144.791087 
L 237.249466 141.339519 
z
" style="fill:#5d5d5d;fill-opacity:0.2;"/>
    <path clip-path="url(#pee068bc045)" d="M 274.243314 148.27678 
L 293.015917 151.797107 
L 302.093654 146.562219 
L 283.419573 143.0944 
z
" style="fill:#5d5d5d;fill-opacity:0.2;"/>
    <path clip-path="url(#pee068bc045)" d="M 199.671125 148.212323 
L 218.083013 151.734197 
L 227.739666 146.497036 
L 209.420761 143.02772 
z
" style="fill:#5d5d5d;fill-opacity:0.2;"/>
    <path clip-path="url(#pee068bc045)" d="M 246.240187 150.000747 
L 264.925036 153.539366 
L 274.243314 148.27678 
L 255.655401 144.791087 
z
" style="fill:#5d5d5d;fill-opacity:0.2;"/>
    <path clip-path="url(#pee068bc045)" d="M 171.448519 149.937025 
L 189.770517 153.477209 
L 199.671125 148.212323 
L 181.440475 144.725117 
z
" style="fill:#5d5d5d;fill-opacity:0.2;"/>
    <path clip-path="url(#pee068bc045)" d="M 293.015917 151.797107 
L 311.975977 155.352587 
L 320.952774 150.064401 
L 302.093654 146.562219 
z
" style="fill:#5d5d5d;fill-opacity:0.2;"/>
    <path clip-path="url(#pee068bc045)" d="M 218.083013 151.734197 
L 236.678853 155.291258 
L 246.240187 150.000747 
L 227.739666 146.497036 
z
" style="fill:#5d5d5d;fill-opacity:0.2;"/>
    <path clip-path="url(#pee068bc045)" d="M 264.925036 153.539366 
L 283.796982 157.113419 
L 293.015917 151.797107 
L 274.243314 148.27678 
z
" style="fill:#5d5d5d;fill-opacity:0.2;"/>
    <path clip-path="url(#pee068bc045)" d="M 189.770517 153.477209 
L 208.276076 157.052861 
L 218.083013 151.734197 
L 199.671125 148.212323 
z
" style="fill:#5d5d5d;fill-opacity:0.2;"/>
    <path clip-path="url(#pee068bc045)" d="M 311.975977 155.352587 
L 331.126316 158.943749 
L 339.999695 153.601457 
L 320.952774 150.064401 
z
" style="fill:#5d5d5d;fill-opacity:0.2;"/>
    <path clip-path="url(#pee068bc045)" d="M 236.678853 155.291258 
L 255.461416 158.884035 
L 264.925036 153.539366 
L 246.240187 150.000747 
z
" style="fill:#5d5d5d;fill-opacity:0.2;"/>
    <path clip-path="url(#pee068bc045)" d="M 161.30141 155.229863 
L 179.715401 158.824258 
L 189.770517 153.477209 
L 171.448519 149.937025 
z
" style="fill:#5d5d5d;fill-opacity:0.2;"/>
    <path clip-path="url(#pee068bc045)" d="M 283.796982 157.113419 
L 302.858851 160.72344 
L 311.975977 155.352587 
L 293.015917 151.797107 
z
" style="fill:#5d5d5d;fill-opacity:0.2;"/>
    <path clip-path="url(#pee068bc045)" d="M 208.276076 157.052861 
L 226.967971 160.664517 
L 236.678853 155.291258 
L 218.083013 151.734197 
z
" style="fill:#5d5d5d;fill-opacity:0.2;"/>
    <path clip-path="url(#pee068bc045)" d="M 331.126316 158.943749 
L 350.469812 162.571132 
L 359.237237 157.173912 
L 339.999695 153.601457 
z
" style="fill:#5d5d5d;fill-opacity:0.2;"/>
    <path clip-path="url(#pee068bc045)" d="M 255.461416 158.884035 
L 274.43353 162.513071 
L 283.796982 157.113419 
L 264.925036 153.539366 
z
" style="fill:#5d5d5d;fill-opacity:0.2;"/>
    <path clip-path="url(#pee068bc045)" d="M 179.715401 158.824258 
L 198.315323 162.454947 
L 208.276076 157.052861 
L 189.770517 153.477209 
z
" style="fill:#5d5d5d;fill-opacity:0.2;"/>
    <path clip-path="url(#pee068bc045)" d="M 302.858851 160.72344 
L 322.113522 164.369976 
L 331.126316 158.943749 
L 311.975977 155.352587 
z
" style="fill:#5d5d5d;fill-opacity:0.2;"/>
    <path clip-path="url(#pee068bc045)" d="M 226.967971 160.664517 
L 245.849029 164.312723 
L 255.461416 158.884035 
L 236.678853 155.291258 
z
" style="fill:#5d5d5d;fill-opacity:0.2;"/>
    <path clip-path="url(#pee068bc045)" d="M 150.995506 160.60553 
L 169.502133 164.255408 
L 179.715401 158.824258 
L 161.30141 155.229863 
z
" style="fill:#5d5d5d;fill-opacity:0.2;"/>
    <path clip-path="url(#pee068bc045)" d="M 274.43353 162.513071 
L 293.598078 166.178915 
L 302.858851 160.72344 
L 283.796982 157.113419 
z
" style="fill:#5d5d5d;fill-opacity:0.2;"/>
    <path clip-path="url(#pee068bc045)" d="M 198.315323 162.454947 
L 217.104005 166.122481 
L 226.967971 160.664517 
L 208.276076 157.052861 
z
" style="fill:#5d5d5d;fill-opacity:0.2;"/>
    <path clip-path="url(#pee068bc045)" d="M 322.113522 164.369976 
L 341.563937 168.053582 
L 350.469812 162.571132 
L 331.126316 158.943749 
z
" style="fill:#5d5d5d;fill-opacity:0.2;"/>
    <path clip-path="url(#pee068bc045)" d="M 245.849029 164.312723 
L 264.922136 167.998037 
L 274.43353 162.513071 
L 255.461416 158.884035 
z
" style="fill:#5d5d5d;fill-opacity:0.2;"/>
    <path clip-path="url(#pee068bc045)" d="M 169.502133 164.255408 
L 188.197103 167.942432 
L 198.315323 162.454947 
L 179.715401 158.824258 
z
" style="fill:#5d5d5d;fill-opacity:0.2;"/>
    <path clip-path="url(#pee068bc045)" d="M 293.598078 166.178915 
L 312.958002 169.882132 
L 322.113522 164.369976 
L 302.858851 160.72344 
z
" style="fill:#5d5d5d;fill-opacity:0.2;"/>
    <path clip-path="url(#pee068bc045)" d="M 217.104005 166.122481 
L 236.084337 169.827426 
L 245.849029 164.312723 
L 226.967971 160.664517 
z
" style="fill:#5d5d5d;fill-opacity:0.2;"/>
    <path clip-path="url(#pee068bc045)" d="M 140.52705 166.065986 
L 159.126952 169.77266 
L 169.502133 164.255408 
L 150.995506 160.60553 
z
" style="fill:#5d5d5d;fill-opacity:0.2;"/>
    <path clip-path="url(#pee068bc045)" d="M 264.922136 167.998037 
L 284.190237 171.721027 
L 293.598078 166.178915 
L 274.43353 162.513071 
z
" style="fill:#5d5d5d;fill-opacity:0.2;"/>
    <path clip-path="url(#pee068bc045)" d="M 188.197103 167.942432 
L 207.083306 171.66717 
L 217.104005 166.122481 
L 198.315323 162.454947 
z
" style="fill:#5d5d5d;fill-opacity:0.2;"/>
    <path clip-path="url(#pee068bc045)" d="M 312.958002 169.882132 
L 332.516307 173.623296 
L 341.563937 168.053582 
L 322.113522 164.369976 
z
" style="fill:#5d5d5d;fill-opacity:0.2;"/>
    <path clip-path="url(#pee068bc045)" d="M 236.084337 169.827426 
L 255.259264 173.570355 
L 264.922136 167.998037 
L 245.849029 164.312723 
z
" style="fill:#5d5d5d;fill-opacity:0.2;"/>
    <path clip-path="url(#pee068bc045)" d="M 159.126952 169.77266 
L 177.917655 173.517357 
L 188.197103 167.942432 
L 169.502133 164.255408 
z
" style="fill:#5d5d5d;fill-opacity:0.2;"/>
    <path clip-path="url(#pee068bc045)" d="M 284.190237 171.721027 
L 303.656339 175.482276 
L 312.958002 169.882132 
L 293.598078 166.178915 
z
" style="fill:#5d5d5d;fill-opacity:0.2;"/>
    <path clip-path="url(#pee068bc045)" d="M 207.083306 171.66717 
L 226.163691 175.430205 
L 236.084337 169.827426 
L 217.104005 166.122481 
z
" style="fill:#5d5d5d;fill-opacity:0.2;"/>
    <path clip-path="url(#pee068bc045)" d="M 129.892165 171.613253 
L 148.585977 175.378076 
L 159.126952 169.77266 
L 140.52705 166.065986 
z
" style="fill:#5d5d5d;fill-opacity:0.2;"/>
    <path clip-path="url(#pee068bc045)" d="M 255.259264 173.570355 
L 274.631797 177.351857 
L 284.190237 171.721027 
L 264.922136 167.998037 
z
" style="fill:#5d5d5d;fill-opacity:0.2;"/>
    <path clip-path="url(#pee068bc045)" d="M 177.917655 173.517357 
L 196.902109 177.300666 
L 207.083306 171.66717 
L 188.197103 167.942432 
z
" style="fill:#5d5d5d;fill-opacity:0.2;"/>
    <path clip-path="url(#pee068bc045)" d="M 303.656339 175.482276 
L 323.323508 179.282375 
L 332.516307 173.623296 
L 312.958002 169.882132 
z
" style="fill:#5d5d5d;fill-opacity:0.2;"/>
    <path clip-path="url(#pee068bc045)" d="M 226.163691 175.430205 
L 245.441269 179.23213 
L 255.259264 173.570355 
L 236.084337 169.827426 
z
" style="fill:#5d5d5d;fill-opacity:0.2;"/>
    <path clip-path="url(#pee068bc045)" d="M 148.585977 175.378076 
L 167.473093 179.181829 
L 177.917655 173.517357 
L 159.126952 169.77266 
z
" style="fill:#5d5d5d;fill-opacity:0.2;"/>
    <path clip-path="url(#pee068bc045)" d="M 274.631797 177.351857 
L 294.205004 181.17253 
L 303.656339 175.482276 
L 284.190237 171.721027 
z
" style="fill:#5d5d5d;fill-opacity:0.2;"/>
    <path clip-path="url(#pee068bc045)" d="M 196.902109 177.300666 
L 216.083327 181.123186 
L 226.163691 175.430205 
L 207.083306 171.66717 
z
" style="fill:#5d5d5d;fill-opacity:0.2;"/>
    <path clip-path="url(#pee068bc045)" d="M 119.086851 177.249418 
L 137.875202 181.073788 
L 148.585977 175.378076 
L 129.892165 171.613253 
z
" style="fill:#5d5d5d;fill-opacity:0.2;"/>
    <path clip-path="url(#pee068bc045)" d="M 245.441269 179.23213 
L 264.919112 183.073551 
L 274.631797 177.351857 
L 255.259264 173.570355 
z
" style="fill:#5d5d5d;fill-opacity:0.2;"/>
    <path clip-path="url(#pee068bc045)" d="M 167.473093 179.181829 
L 186.556527 183.02512 
L 196.902109 177.300666 
L 177.917655 173.517357 
z
" style="fill:#5d5d5d;fill-opacity:0.2;"/>
    <path clip-path="url(#pee068bc045)" d="M 294.205004 181.17253 
L 313.982021 185.032987 
L 323.323508 179.282375 
L 303.656339 175.482276 
z
" style="fill:#5d5d5d;fill-opacity:0.2;"/>
    <path clip-path="url(#pee068bc045)" d="M 216.083327 181.123186 
L 235.464384 184.985532 
L 245.441269 179.23213 
L 226.163691 175.430205 
z
" style="fill:#5d5d5d;fill-opacity:0.2;"/>
    <path clip-path="url(#pee068bc045)" d="M 137.875202 181.073788 
L 156.859407 184.938024 
L 167.473093 179.181829 
L 148.585977 175.378076 
z
" style="fill:#5d5d5d;fill-opacity:0.2;"/>
    <path clip-path="url(#pee068bc045)" d="M 264.919112 183.073551 
L 284.600357 186.955088 
L 294.205004 181.17253 
L 274.631797 177.351857 
z
" style="fill:#5d5d5d;fill-opacity:0.2;"/>
    <path clip-path="url(#pee068bc045)" d="M 186.556527 183.02512 
L 205.839355 186.908567 
L 216.083327 181.123186 
L 196.902109 177.300666 
z
" style="fill:#5d5d5d;fill-opacity:0.2;"/>
    <path clip-path="url(#pee068bc045)" d="M 235.464384 184.985532 
L 255.048418 188.888328 
L 264.919112 183.073551 
L 245.441269 179.23213 
z
" style="fill:#5d5d5d;fill-opacity:0.2;"/>
    <path clip-path="url(#pee068bc045)" d="M 156.859407 184.938024 
L 176.042546 188.842753 
L 186.556527 183.02512 
L 167.473093 179.181829 
z
" style="fill:#5d5d5d;fill-opacity:0.2;"/>
    <path clip-path="url(#pee068bc045)" d="M 284.600357 186.955088 
L 304.488207 190.877371 
L 313.982021 185.032987 
L 294.205004 181.17253 
z
" style="fill:#5d5d5d;fill-opacity:0.2;"/>
    <path clip-path="url(#pee068bc045)" d="M 205.839355 186.908567 
L 225.32472 190.832804 
L 235.464384 184.985532 
L 216.083327 181.123186 
z
" style="fill:#5d5d5d;fill-opacity:0.2;"/>
    <path clip-path="url(#pee068bc045)" d="M 255.048418 188.888328 
L 274.838636 192.832213 
L 284.600357 186.955088 
L 264.919112 183.073551 
z
" style="fill:#5d5d5d;fill-opacity:0.2;"/>
    <path clip-path="url(#pee068bc045)" d="M 176.042546 188.842753 
L 195.42776 192.788615 
L 205.839355 186.908567 
L 186.556527 183.02512 
z
" style="fill:#5d5d5d;fill-opacity:0.2;"/>
    <path clip-path="url(#pee068bc045)" d="M 225.32472 190.832804 
L 245.015828 194.798476 
L 255.048418 188.888328 
L 235.464384 184.985532 
z
" style="fill:#5d5d5d;fill-opacity:0.2;"/>
    <path clip-path="url(#pee068bc045)" d="M 274.838636 192.832213 
L 294.838311 196.817839 
L 304.488207 190.877371 
L 284.600357 186.955088 
z
" style="fill:#5d5d5d;fill-opacity:0.2;"/>
    <path clip-path="url(#pee068bc045)" d="M 195.42776 192.788615 
L 215.018261 196.776262 
L 225.32472 190.832804 
L 205.839355 186.908567 
z
" style="fill:#5d5d5d;fill-opacity:0.2;"/>
    <path clip-path="url(#pee068bc045)" d="M 245.015828 194.798476 
L 264.915956 198.806244 
L 274.838636 192.832213 
L 255.048418 188.888328 
z
" style="fill:#5d5d5d;fill-opacity:0.2;"/>
    <path clip-path="url(#pee068bc045)" d="M 215.018261 196.776262 
L 234.817326 200.806363 
L 245.015828 194.798476 
L 225.32472 190.832804 
z
" style="fill:#5d5d5d;fill-opacity:0.2;"/>
    <path clip-path="url(#pee068bc045)" d="M 264.915956 198.806244 
L 285.02845 202.856781 
L 294.838311 196.817839 
L 274.838636 192.832213 
z
" style="fill:#5d5d5d;fill-opacity:0.2;"/>
    <path clip-path="url(#pee068bc045)" d="M 234.817326 200.806363 
L 254.828304 204.879599 
L 264.915956 198.806244 
L 245.015828 194.798476 
z
" style="fill:#5d5d5d;fill-opacity:0.2;"/>
    <path clip-path="url(#pee068bc045)" d="M 254.828304 204.879599 
L 275.054615 208.996666 
L 285.02845 202.856781 
L 264.915956 198.806244 
z
" style="fill:#5d5d5d;fill-opacity:0.2;"/>
   </g>
  </g>
 </g>
 <defs>
  <clipPath id="pee068bc045">
   <rect height="266.112" width="357.12" x="57.6" y="41.472"/>
  </clipPath>
 </defs>
</svg>
