<?xml version="1.0" encoding="utf-8" standalone="no"?>
<!DOCTYPE svg PUBLIC "-//W3C//DTD SVG 1.1//EN"
  "http://www.w3.org/Graphics/SVG/1.1/DTD/svg11.dtd">
<!-- Created with matplotlib (https://matplotlib.org/) -->
<svg height="735.84pt" version="1.1" viewBox="0 0 689.76 735.84" width="689.76pt" xmlns="http://www.w3.org/2000/svg" xmlns:xlink="http://www.w3.org/1999/xlink">
 <defs>
  <style type="text/css">
*{stroke-linecap:butt;stroke-linejoin:round;}
  </style>
 </defs>
 <g id="figure_1">
  <g id="patch_1">
   <path d="M 0 735.84 
L 689.76 735.84 
L 689.76 0 
L 0 0 
z
" style="fill:#ffffff;"/>
  </g>
  <g id="patch_2">
   <path d="M 86.22 654.8976 
L 620.784 654.8976 
L 620.784 88.3008 
L 86.22 88.3008 
z
" style="fill:#ffffff;"/>
  </g>
  <g id="pane3d_1">
   <g id="patch_3">
    <path d="M 152.657136 526.501964 
L 325.376992 428.469298 
L 324.127803 146.583853 
L 144.696267 225.060602 
" style="fill:#f2f2f2;opacity:0.5;stroke:#f2f2f2;stroke-linejoin:miter;"/>
   </g>
  </g>
  <g id="pane3d_2">
   <g id="patch_4">
    <path d="M 325.376992 428.469298 
L 563.782033 494.484 
L 571.356975 199.381035 
L 324.127803 146.583853 
" style="fill:#e6e6e6;opacity:0.5;stroke:#e6e6e6;stroke-linejoin:miter;"/>
   </g>
  </g>
  <g id="pane3d_3">
   <g id="patch_5">
    <path d="M 152.657136 526.501964 
L 401.108687 603.779436 
L 563.782033 494.484 
L 325.376992 428.469298 
" style="fill:#ececec;opacity:0.5;stroke:#ececec;stroke-linejoin:miter;"/>
   </g>
  </g>
  <g id="axis3d_1">
   <g id="line2d_1">
    <path d="M 152.657136 526.501964 
L 401.108687 603.779436 
" style="fill:none;stroke:#000000;stroke-linecap:square;stroke-width:0.8;"/>
   </g>
   <g id="text_1">
    <!-- X -->
    <defs>
     <path d="M 49.8125 37.203125 
L 75.09375 0 
L 55.515625 0 
L 38.484375 24.90625 
L 21.578125 0 
L 1.90625 0 
L 27.203125 37.203125 
L 2.875 72.90625 
L 22.515625 72.90625 
L 38.484375 49.421875 
L 54.390625 72.90625 
L 74.125 72.90625 
z
" id="DejaVuSans-Bold-88"/>
    </defs>
    <g transform="translate(248.096243 614.668903)scale(0.12 -0.12)">
     <use xlink:href="#DejaVuSans-Bold-88"/>
    </g>
   </g>
   <g id="Line3DCollection_1">
    <path d="M 174.289367 533.230375 
L 346.215735 434.239576 
L 345.700475 151.190819 
" style="fill:none;stroke:#b0b0b0;stroke-width:0.8;"/>
    <path d="M 200.320675 541.327059 
L 371.271576 441.177575 
L 371.648236 156.732109 
" style="fill:none;stroke:#b0b0b0;stroke-width:0.8;"/>
    <path d="M 226.669476 549.522495 
L 396.610112 448.193852 
L 397.899271 162.338165 
" style="fill:none;stroke:#b0b0b0;stroke-width:0.8;"/>
    <path d="M 253.341615 557.8185 
L 422.236153 455.28974 
L 424.458929 168.01013 
" style="fill:none;stroke:#b0b0b0;stroke-width:0.8;"/>
    <path d="M 280.34308 566.216938 
L 448.15462 462.466601 
L 451.332685 173.749172 
" style="fill:none;stroke:#b0b0b0;stroke-width:0.8;"/>
    <path d="M 307.680008 574.719718 
L 474.370548 469.72583 
L 478.526143 179.556488 
" style="fill:none;stroke:#b0b0b0;stroke-width:0.8;"/>
    <path d="M 335.358691 583.328795 
L 500.889088 477.068852 
L 506.045043 185.433304 
" style="fill:none;stroke:#b0b0b0;stroke-width:0.8;"/>
    <path d="M 363.385577 592.046176 
L 527.715509 484.497127 
L 533.895261 191.380875 
" style="fill:none;stroke:#b0b0b0;stroke-width:0.8;"/>
    <path d="M 391.767279 600.873918 
L 554.855204 492.012148 
L 562.082819 197.400486 
" style="fill:none;stroke:#b0b0b0;stroke-width:0.8;"/>
   </g>
   <g id="xtick_1">
    <g id="line2d_2">
     <path d="M 175.773913 532.375612 
L 171.314566 534.943189 
" style="fill:none;stroke:#000000;stroke-linecap:square;stroke-width:0.8;"/>
    </g>
    <g id="text_2">
     <!-- −0.4 -->
     <defs>
      <path d="M 10.59375 35.5 
L 73.1875 35.5 
L 73.1875 27.203125 
L 10.59375 27.203125 
z
" id="DejaVuSans-8722"/>
      <path d="M 31.78125 66.40625 
Q 24.171875 66.40625 20.328125 58.90625 
Q 16.5 51.421875 16.5 36.375 
Q 16.5 21.390625 20.328125 13.890625 
Q 24.171875 6.390625 31.78125 6.390625 
Q 39.453125 6.390625 43.28125 13.890625 
Q 47.125 21.390625 47.125 36.375 
Q 47.125 51.421875 43.28125 58.90625 
Q 39.453125 66.40625 31.78125 66.40625 
z
M 31.78125 74.21875 
Q 44.046875 74.21875 50.515625 64.515625 
Q 56.984375 54.828125 56.984375 36.375 
Q 56.984375 17.96875 50.515625 8.265625 
Q 44.046875 -1.421875 31.78125 -1.421875 
Q 19.53125 -1.421875 13.0625 8.265625 
Q 6.59375 17.96875 6.59375 36.375 
Q 6.59375 54.828125 13.0625 64.515625 
Q 19.53125 74.21875 31.78125 74.21875 
z
" id="DejaVuSans-48"/>
      <path d="M 10.6875 12.40625 
L 21 12.40625 
L 21 0 
L 10.6875 0 
z
" id="DejaVuSans-46"/>
      <path d="M 37.796875 64.3125 
L 12.890625 25.390625 
L 37.796875 25.390625 
z
M 35.203125 72.90625 
L 47.609375 72.90625 
L 47.609375 25.390625 
L 58.015625 25.390625 
L 58.015625 17.1875 
L 47.609375 17.1875 
L 47.609375 0 
L 37.796875 0 
L 37.796875 17.1875 
L 4.890625 17.1875 
L 4.890625 26.703125 
z
" id="DejaVuSans-52"/>
     </defs>
     <g transform="translate(154.965863 556.836209)scale(0.1 -0.1)">
      <use xlink:href="#DejaVuSans-8722"/>
      <use x="83.789062" xlink:href="#DejaVuSans-48"/>
      <use x="147.412109" xlink:href="#DejaVuSans-46"/>
      <use x="179.199219" xlink:href="#DejaVuSans-52"/>
     </g>
    </g>
   </g>
   <g id="xtick_2">
    <g id="line2d_3">
     <path d="M 201.797455 540.461906 
L 197.3614 543.060713 
" style="fill:none;stroke:#000000;stroke-linecap:square;stroke-width:0.8;"/>
    </g>
    <g id="text_3">
     <!-- −0.3 -->
     <defs>
      <path d="M 40.578125 39.3125 
Q 47.65625 37.796875 51.625 33 
Q 55.609375 28.21875 55.609375 21.1875 
Q 55.609375 10.40625 48.1875 4.484375 
Q 40.765625 -1.421875 27.09375 -1.421875 
Q 22.515625 -1.421875 17.65625 -0.515625 
Q 12.796875 0.390625 7.625 2.203125 
L 7.625 11.71875 
Q 11.71875 9.328125 16.59375 8.109375 
Q 21.484375 6.890625 26.8125 6.890625 
Q 36.078125 6.890625 40.9375 10.546875 
Q 45.796875 14.203125 45.796875 21.1875 
Q 45.796875 27.640625 41.28125 31.265625 
Q 36.765625 34.90625 28.71875 34.90625 
L 20.21875 34.90625 
L 20.21875 43.015625 
L 29.109375 43.015625 
Q 36.375 43.015625 40.234375 45.921875 
Q 44.09375 48.828125 44.09375 54.296875 
Q 44.09375 59.90625 40.109375 62.90625 
Q 36.140625 65.921875 28.71875 65.921875 
Q 24.65625 65.921875 20.015625 65.03125 
Q 15.375 64.15625 9.8125 62.3125 
L 9.8125 71.09375 
Q 15.4375 72.65625 20.34375 73.4375 
Q 25.25 74.21875 29.59375 74.21875 
Q 40.828125 74.21875 47.359375 69.109375 
Q 53.90625 64.015625 53.90625 55.328125 
Q 53.90625 49.265625 50.4375 45.09375 
Q 46.96875 40.921875 40.578125 39.3125 
z
" id="DejaVuSans-51"/>
     </defs>
     <g transform="translate(180.998802 565.044159)scale(0.1 -0.1)">
      <use xlink:href="#DejaVuSans-8722"/>
      <use x="83.789062" xlink:href="#DejaVuSans-48"/>
      <use x="147.412109" xlink:href="#DejaVuSans-46"/>
      <use x="179.199219" xlink:href="#DejaVuSans-51"/>
     </g>
    </g>
   </g>
   <g id="xtick_3">
    <g id="line2d_4">
     <path d="M 228.13819 548.646761 
L 223.72633 551.277372 
" style="fill:none;stroke:#000000;stroke-linecap:square;stroke-width:0.8;"/>
    </g>
    <g id="text_4">
     <!-- −0.2 -->
     <defs>
      <path d="M 19.1875 8.296875 
L 53.609375 8.296875 
L 53.609375 0 
L 7.328125 0 
L 7.328125 8.296875 
Q 12.9375 14.109375 22.625 23.890625 
Q 32.328125 33.6875 34.8125 36.53125 
Q 39.546875 41.84375 41.421875 45.53125 
Q 43.3125 49.21875 43.3125 52.78125 
Q 43.3125 58.59375 39.234375 62.25 
Q 35.15625 65.921875 28.609375 65.921875 
Q 23.96875 65.921875 18.8125 64.3125 
Q 13.671875 62.703125 7.8125 59.421875 
L 7.8125 69.390625 
Q 13.765625 71.78125 18.9375 73 
Q 24.125 74.21875 28.421875 74.21875 
Q 39.75 74.21875 46.484375 68.546875 
Q 53.21875 62.890625 53.21875 53.421875 
Q 53.21875 48.921875 51.53125 44.890625 
Q 49.859375 40.875 45.40625 35.40625 
Q 44.1875 33.984375 37.640625 27.21875 
Q 31.109375 20.453125 19.1875 8.296875 
z
" id="DejaVuSans-50"/>
     </defs>
     <g transform="translate(207.34981 573.352393)scale(0.1 -0.1)">
      <use xlink:href="#DejaVuSans-8722"/>
      <use x="83.789062" xlink:href="#DejaVuSans-48"/>
      <use x="147.412109" xlink:href="#DejaVuSans-46"/>
      <use x="179.199219" xlink:href="#DejaVuSans-50"/>
     </g>
    </g>
   </g>
   <g id="xtick_4">
    <g id="line2d_5">
     <path d="M 254.801953 556.93199 
L 250.415217 559.594993 
" style="fill:none;stroke:#000000;stroke-linecap:square;stroke-width:0.8;"/>
    </g>
    <g id="text_5">
     <!-- −0.1 -->
     <defs>
      <path d="M 12.40625 8.296875 
L 28.515625 8.296875 
L 28.515625 63.921875 
L 10.984375 60.40625 
L 10.984375 69.390625 
L 28.421875 72.90625 
L 38.28125 72.90625 
L 38.28125 8.296875 
L 54.390625 8.296875 
L 54.390625 0 
L 12.40625 0 
z
" id="DejaVuSans-49"/>
     </defs>
     <g transform="translate(234.024751 581.762761)scale(0.1 -0.1)">
      <use xlink:href="#DejaVuSans-8722"/>
      <use x="83.789062" xlink:href="#DejaVuSans-48"/>
      <use x="147.412109" xlink:href="#DejaVuSans-46"/>
      <use x="179.199219" xlink:href="#DejaVuSans-49"/>
     </g>
    </g>
   </g>
   <g id="xtick_5">
    <g id="line2d_6">
     <path d="M 281.794723 565.319452 
L 277.434071 568.015448 
" style="fill:none;stroke:#000000;stroke-linecap:square;stroke-width:0.8;"/>
    </g>
    <g id="text_6">
     <!-- 0.0 -->
     <g transform="translate(265.21948 590.277157)scale(0.1 -0.1)">
      <use xlink:href="#DejaVuSans-48"/>
      <use x="63.623047" xlink:href="#DejaVuSans-46"/>
      <use x="95.410156" xlink:href="#DejaVuSans-48"/>
     </g>
    </g>
   </g>
   <g id="xtick_6">
    <g id="line2d_7">
     <path d="M 309.122628 573.81105 
L 304.789048 576.540656 
" style="fill:none;stroke:#000000;stroke-linecap:square;stroke-width:0.8;"/>
    </g>
    <g id="text_7">
     <!-- 0.1 -->
     <g transform="translate(292.560469 598.897523)scale(0.1 -0.1)">
      <use xlink:href="#DejaVuSans-48"/>
      <use x="63.623047" xlink:href="#DejaVuSans-46"/>
      <use x="95.410156" xlink:href="#DejaVuSans-49"/>
     </g>
    </g>
   </g>
   <g id="xtick_7">
    <g id="line2d_8">
     <path d="M 336.791947 582.408736 
L 332.48646 585.172584 
" style="fill:none;stroke:#000000;stroke-linecap:square;stroke-width:0.8;"/>
    </g>
    <g id="text_8">
     <!-- 0.2 -->
     <g transform="translate(320.243876 607.62585)scale(0.1 -0.1)">
      <use xlink:href="#DejaVuSans-48"/>
      <use x="63.623047" xlink:href="#DejaVuSans-46"/>
      <use x="95.410156" xlink:href="#DejaVuSans-50"/>
     </g>
    </g>
   </g>
   <g id="xtick_8">
    <g id="line2d_9">
     <path d="M 364.809119 591.11451 
L 360.532777 593.913249 
" style="fill:none;stroke:#000000;stroke-linecap:square;stroke-width:0.8;"/>
    </g>
    <g id="text_9">
     <!-- 0.3 -->
     <g transform="translate(348.276173 616.46418)scale(0.1 -0.1)">
      <use xlink:href="#DejaVuSans-48"/>
      <use x="63.623047" xlink:href="#DejaVuSans-46"/>
      <use x="95.410156" xlink:href="#DejaVuSans-51"/>
     </g>
    </g>
   </g>
   <g id="xtick_9">
    <g id="line2d_10">
     <path d="M 393.180745 599.930424 
L 388.934634 602.764719 
" style="fill:none;stroke:#000000;stroke-linecap:square;stroke-width:0.8;"/>
    </g>
    <g id="text_10">
     <!-- 0.4 -->
     <g transform="translate(376.663998 625.414604)scale(0.1 -0.1)">
      <use xlink:href="#DejaVuSans-48"/>
      <use x="63.623047" xlink:href="#DejaVuSans-46"/>
      <use x="95.410156" xlink:href="#DejaVuSans-52"/>
     </g>
    </g>
   </g>
  </g>
  <g id="axis3d_2">
   <g id="line2d_11">
    <path d="M 563.782033 494.484 
L 401.108687 603.779436 
" style="fill:none;stroke:#000000;stroke-linecap:square;stroke-width:0.8;"/>
   </g>
   <g id="text_11">
    <!-- Y -->
    <defs>
     <path d="M -0.984375 72.90625 
L 19.578125 72.90625 
L 36.1875 46.921875 
L 52.78125 72.90625 
L 73.390625 72.90625 
L 45.609375 30.71875 
L 45.609375 0 
L 26.8125 0 
L 26.8125 30.71875 
z
" id="DejaVuSans-Bold-89"/>
    </defs>
    <g transform="translate(510.486704 592.824757)scale(0.12 -0.12)">
     <use xlink:href="#DejaVuSans-Bold-89"/>
    </g>
   </g>
   <g id="Line3DCollection_2">
    <path d="M 153.882994 221.042666 
L 161.476615 521.496187 
L 409.448966 598.175848 
" style="fill:none;stroke:#b0b0b0;stroke-width:0.8;"/>
    <path d="M 190.677315 204.950184 
L 196.825545 501.432774 
L 442.840615 575.740981 
" style="fill:none;stroke:#b0b0b0;stroke-width:0.8;"/>
    <path d="M 226.332627 189.355864 
L 231.119182 481.968326 
L 475.179492 554.013441 
" style="fill:none;stroke:#b0b0b0;stroke-width:0.8;"/>
    <path d="M 260.901012 174.236925 
L 264.404088 463.076416 
L 506.514613 532.960295 
" style="fill:none;stroke:#b0b0b0;stroke-width:0.8;"/>
    <path d="M 294.431425 159.571956 
L 296.724124 444.732148 
L 536.891996 512.550625 
" style="fill:none;stroke:#b0b0b0;stroke-width:0.8;"/>
   </g>
   <g id="xtick_10">
    <g id="line2d_12">
     <path d="M 407.351273 597.527185 
L 413.650188 599.474978 
" style="fill:none;stroke:#000000;stroke-linecap:square;stroke-width:0.8;"/>
    </g>
    <g id="text_12">
     <!-- −0.8 -->
     <defs>
      <path d="M 31.78125 34.625 
Q 24.75 34.625 20.71875 30.859375 
Q 16.703125 27.09375 16.703125 20.515625 
Q 16.703125 13.921875 20.71875 10.15625 
Q 24.75 6.390625 31.78125 6.390625 
Q 38.8125 6.390625 42.859375 10.171875 
Q 46.921875 13.96875 46.921875 20.515625 
Q 46.921875 27.09375 42.890625 30.859375 
Q 38.875 34.625 31.78125 34.625 
z
M 21.921875 38.8125 
Q 15.578125 40.375 12.03125 44.71875 
Q 8.5 49.078125 8.5 55.328125 
Q 8.5 64.0625 14.71875 69.140625 
Q 20.953125 74.21875 31.78125 74.21875 
Q 42.671875 74.21875 48.875 69.140625 
Q 55.078125 64.0625 55.078125 55.328125 
Q 55.078125 49.078125 51.53125 44.71875 
Q 48 40.375 41.703125 38.8125 
Q 48.828125 37.15625 52.796875 32.3125 
Q 56.78125 27.484375 56.78125 20.515625 
Q 56.78125 9.90625 50.3125 4.234375 
Q 43.84375 -1.421875 31.78125 -1.421875 
Q 19.734375 -1.421875 13.25 4.234375 
Q 6.78125 9.90625 6.78125 20.515625 
Q 6.78125 27.484375 10.78125 32.3125 
Q 14.796875 37.15625 21.921875 38.8125 
z
M 18.3125 54.390625 
Q 18.3125 48.734375 21.84375 45.5625 
Q 25.390625 42.390625 31.78125 42.390625 
Q 38.140625 42.390625 41.71875 45.5625 
Q 45.3125 48.734375 45.3125 54.390625 
Q 45.3125 60.0625 41.71875 63.234375 
Q 38.140625 66.40625 31.78125 66.40625 
Q 25.390625 66.40625 21.84375 63.234375 
Q 18.3125 60.0625 18.3125 54.390625 
z
" id="DejaVuSans-56"/>
     </defs>
     <g transform="translate(407.760047 621.198794)scale(0.1 -0.1)">
      <use xlink:href="#DejaVuSans-8722"/>
      <use x="83.789062" xlink:href="#DejaVuSans-48"/>
      <use x="147.412109" xlink:href="#DejaVuSans-46"/>
      <use x="179.199219" xlink:href="#DejaVuSans-56"/>
     </g>
    </g>
   </g>
   <g id="xtick_11">
    <g id="line2d_13">
     <path d="M 440.761289 575.112926 
L 447.00496 576.998811 
" style="fill:none;stroke:#000000;stroke-linecap:square;stroke-width:0.8;"/>
    </g>
    <g id="text_13">
     <!-- −0.6 -->
     <defs>
      <path d="M 33.015625 40.375 
Q 26.375 40.375 22.484375 35.828125 
Q 18.609375 31.296875 18.609375 23.390625 
Q 18.609375 15.53125 22.484375 10.953125 
Q 26.375 6.390625 33.015625 6.390625 
Q 39.65625 6.390625 43.53125 10.953125 
Q 47.40625 15.53125 47.40625 23.390625 
Q 47.40625 31.296875 43.53125 35.828125 
Q 39.65625 40.375 33.015625 40.375 
z
M 52.59375 71.296875 
L 52.59375 62.3125 
Q 48.875 64.0625 45.09375 64.984375 
Q 41.3125 65.921875 37.59375 65.921875 
Q 27.828125 65.921875 22.671875 59.328125 
Q 17.53125 52.734375 16.796875 39.40625 
Q 19.671875 43.65625 24.015625 45.921875 
Q 28.375 48.1875 33.59375 48.1875 
Q 44.578125 48.1875 50.953125 41.515625 
Q 57.328125 34.859375 57.328125 23.390625 
Q 57.328125 12.15625 50.6875 5.359375 
Q 44.046875 -1.421875 33.015625 -1.421875 
Q 20.359375 -1.421875 13.671875 8.265625 
Q 6.984375 17.96875 6.984375 36.375 
Q 6.984375 53.65625 15.1875 63.9375 
Q 23.390625 74.21875 37.203125 74.21875 
Q 40.921875 74.21875 44.703125 73.484375 
Q 48.484375 72.75 52.59375 71.296875 
z
" id="DejaVuSans-54"/>
     </defs>
     <g transform="translate(441.00931 598.499796)scale(0.1 -0.1)">
      <use xlink:href="#DejaVuSans-8722"/>
      <use x="83.789062" xlink:href="#DejaVuSans-48"/>
      <use x="147.412109" xlink:href="#DejaVuSans-46"/>
      <use x="179.199219" xlink:href="#DejaVuSans-54"/>
     </g>
    </g>
   </g>
   <g id="xtick_12">
    <g id="line2d_14">
     <path d="M 473.118426 553.405027 
L 479.307178 555.231909 
" style="fill:none;stroke:#000000;stroke-linecap:square;stroke-width:0.8;"/>
    </g>
    <g id="text_14">
     <!-- −0.4 -->
     <g transform="translate(473.209514 576.516982)scale(0.1 -0.1)">
      <use xlink:href="#DejaVuSans-8722"/>
      <use x="83.789062" xlink:href="#DejaVuSans-48"/>
      <use x="147.412109" xlink:href="#DejaVuSans-46"/>
      <use x="179.199219" xlink:href="#DejaVuSans-52"/>
     </g>
    </g>
   </g>
   <g id="xtick_13">
    <g id="line2d_15">
     <path d="M 504.471683 532.370615 
L 510.605891 534.14122 
" style="fill:none;stroke:#000000;stroke-linecap:square;stroke-width:0.8;"/>
    </g>
    <g id="text_15">
     <!-- −0.2 -->
     <g transform="translate(504.409536 555.216984)scale(0.1 -0.1)">
      <use xlink:href="#DejaVuSans-8722"/>
      <use x="83.789062" xlink:href="#DejaVuSans-48"/>
      <use x="147.412109" xlink:href="#DejaVuSans-46"/>
      <use x="179.199219" xlink:href="#DejaVuSans-50"/>
     </g>
    </g>
   </g>
   <g id="xtick_14">
    <g id="line2d_16">
     <path d="M 534.867066 511.978826 
L 540.947146 513.695716 
" style="fill:none;stroke:#000000;stroke-linecap:square;stroke-width:0.8;"/>
    </g>
    <g id="text_16">
     <!-- 0.0 -->
     <g transform="translate(538.845108 534.568474)scale(0.1 -0.1)">
      <use xlink:href="#DejaVuSans-48"/>
      <use x="63.623047" xlink:href="#DejaVuSans-46"/>
      <use x="95.410156" xlink:href="#DejaVuSans-48"/>
     </g>
    </g>
   </g>
  </g>
  <g id="axis3d_3">
   <g id="line2d_17">
    <path d="M 563.782033 494.484 
L 571.356975 199.381035 
" style="fill:none;stroke:#000000;stroke-linecap:square;stroke-width:0.8;"/>
   </g>
   <g id="text_17">
    <!-- Z -->
    <defs>
     <path d="M 5.609375 72.90625 
L 66.890625 72.90625 
L 66.890625 61.53125 
L 27.78125 14.203125 
L 68.015625 14.203125 
L 68.015625 0 
L 4.5 0 
L 4.5 11.375 
L 43.609375 58.6875 
L 5.609375 58.6875 
z
" id="DejaVuSans-Bold-90"/>
    </defs>
    <g transform="translate(610.023726 349.701971)scale(0.12 -0.12)">
     <use xlink:href="#DejaVuSans-Bold-90"/>
    </g>
   </g>
   <g id="Line3DCollection_3">
    <path d="M 564.329646 473.150205 
L 325.286526 408.055144 
L 152.082115 504.728568 
" style="fill:none;stroke:#b0b0b0;stroke-width:0.8;"/>
    <path d="M 565.61927 422.909325 
L 325.073577 360.002139 
L 150.727643 453.440975 
" style="fill:none;stroke:#b0b0b0;stroke-width:0.8;"/>
    <path d="M 566.925335 372.027939 
L 324.858053 311.368157 
L 149.355471 401.483135 
" style="fill:none;stroke:#b0b0b0;stroke-width:0.8;"/>
    <path d="M 568.248157 320.493718 
L 324.639908 262.142597 
L 147.965248 348.841822 
" style="fill:none;stroke:#b0b0b0;stroke-width:0.8;"/>
    <path d="M 569.588061 268.294018 
L 324.419092 212.3146 
L 146.556617 295.503461 
" style="fill:none;stroke:#b0b0b0;stroke-width:0.8;"/>
    <path d="M 570.94538 215.415865 
L 324.195558 161.873039 
L 145.129209 241.454114 
" style="fill:none;stroke:#b0b0b0;stroke-width:0.8;"/>
   </g>
   <g id="xtick_15">
    <g id="line2d_18">
     <path d="M 562.315341 472.601679 
L 568.363461 474.248674 
" style="fill:none;stroke:#000000;stroke-linecap:square;stroke-width:0.8;"/>
    </g>
    <g id="text_18">
     <!-- −2 -->
     <g transform="translate(573.076007 479.514038)scale(0.1 -0.1)">
      <use xlink:href="#DejaVuSans-8722"/>
      <use x="83.789062" xlink:href="#DejaVuSans-50"/>
     </g>
    </g>
   </g>
   <g id="xtick_16">
    <g id="line2d_19">
     <path d="M 563.591653 422.379066 
L 569.679774 423.971223 
" style="fill:none;stroke:#000000;stroke-linecap:square;stroke-width:0.8;"/>
    </g>
    <g id="text_19">
     <!-- −1 -->
     <g transform="translate(574.466363 429.314275)scale(0.1 -0.1)">
      <use xlink:href="#DejaVuSans-8722"/>
      <use x="83.789062" xlink:href="#DejaVuSans-49"/>
     </g>
    </g>
   </g>
   <g id="xtick_17">
    <g id="line2d_20">
     <path d="M 564.88423 371.516457 
L 571.012884 373.05224 
" style="fill:none;stroke:#000000;stroke-linecap:square;stroke-width:0.8;"/>
    </g>
    <g id="text_20">
     <!-- 0 -->
     <g transform="translate(580.064271 378.475158)scale(0.1 -0.1)">
      <use xlink:href="#DejaVuSans-48"/>
     </g>
    </g>
   </g>
   <g id="xtick_18">
    <g id="line2d_21">
     <path d="M 566.193384 320.001542 
L 572.363112 321.479368 
" style="fill:none;stroke:#000000;stroke-linecap:square;stroke-width:0.8;"/>
    </g>
    <g id="text_21">
     <!-- 1 -->
     <g transform="translate(581.490383 326.984392)scale(0.1 -0.1)">
      <use xlink:href="#DejaVuSans-49"/>
     </g>
    </g>
   </g>
   <g id="xtick_19">
    <g id="line2d_22">
     <path d="M 567.519436 267.821689 
L 573.730793 269.239928 
" style="fill:none;stroke:#000000;stroke-linecap:square;stroke-width:0.8;"/>
    </g>
    <g id="text_22">
     <!-- 2 -->
     <g transform="translate(582.934893 274.829367)scale(0.1 -0.1)">
      <use xlink:href="#DejaVuSans-50"/>
     </g>
    </g>
   </g>
   <g id="xtick_20">
    <g id="line2d_23">
     <path d="M 568.862715 214.963942 
L 575.116265 216.320915 
" style="fill:none;stroke:#000000;stroke-linecap:square;stroke-width:0.8;"/>
    </g>
    <g id="text_23">
     <!-- 3 -->
     <g transform="translate(584.398158 221.997147)scale(0.1 -0.1)">
      <use xlink:href="#DejaVuSans-51"/>
     </g>
    </g>
   </g>
  </g>
  <g id="axes_1">
   <g id="line2d_24">
    <path clip-path="url(#pfd83277d05)" d="M 421.279611 358.38558 
L 488.939749 375.681063 
" style="fill:none;stroke:#ff7f0e;stroke-linecap:square;stroke-width:3;"/>
   </g>
   <g id="line2d_25">
    <path clip-path="url(#pfd83277d05)" d="M 488.939749 375.681063 
L 394.930819 430.916208 
" style="fill:none;stroke:#2ca02c;stroke-linecap:square;stroke-width:3;"/>
   </g>
   <g id="line2d_26">
    <path clip-path="url(#pfd83277d05)" d="M 394.930819 430.916208 
L 395.100198 391.428952 
" style="fill:none;stroke:#d62728;stroke-linecap:square;stroke-width:3;"/>
   </g>
   <g id="line2d_27">
    <path clip-path="url(#pfd83277d05)" d="M 395.100198 391.428952 
L 264.33577 356.851856 
" style="fill:none;stroke:#9467bd;stroke-linecap:square;stroke-width:1.5;"/>
   </g>
   <g id="line2d_28">
    <path clip-path="url(#pfd83277d05)" d="M 264.33577 356.851856 
L 320.951928 327.415474 
" style="fill:none;stroke:#8c564b;stroke-linecap:square;stroke-width:1.5;"/>
   </g>
   <g id="line2d_29">
    <path clip-path="url(#pfd83277d05)" d="M 320.951928 327.415474 
L 320.999984 337.175009 
" style="fill:none;stroke:#e377c2;stroke-linecap:square;stroke-width:1.5;"/>
   </g>
   <g id="line2d_30">
    <path clip-path="url(#pfd83277d05)" d="M 320.999984 337.175009 
L 377.936985 351.786117 
" style="fill:none;stroke:#7f7f7f;stroke-linecap:square;"/>
   </g>
   <g id="line2d_31">
    <path clip-path="url(#pfd83277d05)" d="M 377.936985 351.786117 
L 368.8203 356.758759 
" style="fill:none;stroke:#bcbd22;stroke-linecap:square;"/>
   </g>
   <g id="line2d_32">
    <path clip-path="url(#pfd83277d05)" d="M 368.8203 356.758759 
L 368.823133 353.942026 
" style="fill:none;stroke:#17becf;stroke-linecap:square;"/>
   </g>
   <g id="line2d_33">
    <path clip-path="url(#pfd83277d05)" d="M 368.823133 353.942026 
L 357.681852 351.071809 
" style="fill:none;stroke:#1f77b4;stroke-linecap:square;stroke-width:0.75;"/>
   </g>
   <g id="line2d_34">
    <path clip-path="url(#pfd83277d05)" d="M 357.681852 351.071809 
L 361.368506 349.081241 
" style="fill:none;stroke:#ff7f0e;stroke-linecap:square;stroke-width:0.75;"/>
   </g>
   <g id="line2d_35">
    <path clip-path="url(#pfd83277d05)" d="M 361.368506 349.081241 
L 361.368446 349.824056 
" style="fill:none;stroke:#2ca02c;stroke-linecap:square;stroke-width:0.75;"/>
   </g>
   <g id="line2d_36">
    <path clip-path="url(#pfd83277d05)" d="M 361.368446 349.824056 
L 365.335984 350.844228 
" style="fill:none;stroke:#d62728;stroke-linecap:square;stroke-width:0.6;"/>
   </g>
   <g id="line2d_37">
    <path clip-path="url(#pfd83277d05)" d="M 365.335984 350.844228 
L 364.572471 351.257879 
" style="fill:none;stroke:#9467bd;stroke-linecap:square;stroke-width:0.6;"/>
   </g>
   <g id="line2d_38">
    <path clip-path="url(#pfd83277d05)" d="M 364.572471 351.257879 
L 364.57257 351.050125 
" style="fill:none;stroke:#8c564b;stroke-linecap:square;stroke-width:0.6;"/>
   </g>
   <g id="Path3DCollection_1">
    <defs>
     <path d="M 0 2.236068 
C 0.593012 2.236068 1.161816 2.000462 1.581139 1.581139 
C 2.000462 1.161816 2.236068 0.593012 2.236068 0 
C 2.236068 -0.593012 2.000462 -1.161816 1.581139 -1.581139 
C 1.161816 -2.000462 0.593012 -2.236068 0 -2.236068 
C -0.593012 -2.236068 -1.161816 -2.000462 -1.581139 -1.581139 
C -2.000462 -1.161816 -2.236068 -0.593012 -2.236068 0 
C -2.236068 0.593012 -2.000462 1.161816 -1.581139 1.581139 
C -1.161816 2.000462 -0.593012 2.236068 0 2.236068 
z
" id="m6a9c22998f" style="stroke:#ff0000;"/>
    </defs>
    <g clip-path="url(#pfd83277d05)">
     <use style="fill:#ff0000;stroke:#ff0000;" x="421.279611" xlink:href="#m6a9c22998f" y="358.38558"/>
    </g>
   </g>
   <g id="Poly3DCollection_1">
    <path clip-path="url(#pfd83277d05)" d="M 312.3996 190.703572 
L 338.401541 217.087514 
L 354.487696 199.270832 
L 328.594094 173.109511 
z
" style="fill:#155079;fill-opacity:0.2;"/>
    <path clip-path="url(#pfd83277d05)" d="M 338.401541 217.087514 
L 364.577371 243.647899 
L 380.55338 225.606013 
L 354.487696 199.270832 
z
" style="fill:#185b89;fill-opacity:0.2;"/>
    <path clip-path="url(#pfd83277d05)" d="M 296.001483 208.518851 
L 322.112448 235.128965 
L 338.401541 217.087514 
L 312.3996 190.703572 
z
" style="fill:#155079;fill-opacity:0.2;"/>
    <path clip-path="url(#pfd83277d05)" d="M 364.577371 243.647899 
L 390.928838 270.386502 
L 406.792866 252.116794 
L 380.55338 225.606013 
z
" style="fill:#185b89;fill-opacity:0.2;"/>
    <path clip-path="url(#pfd83277d05)" d="M 322.112448 235.128965 
L 348.399134 261.918161 
L 364.577371 243.647899 
L 338.401541 217.087514 
z
" style="fill:#144e75;fill-opacity:0.2;"/>
    <path clip-path="url(#pfd83277d05)" d="M 390.928838 270.386502 
L 417.457718 297.305125 
L 433.207899 278.804936 
L 406.792866 252.116794 
z
" style="fill:#185b89;fill-opacity:0.2;"/>
    <path clip-path="url(#pfd83277d05)" d="M 279.39588 226.55955 
L 305.616551 253.399468 
L 322.112448 235.128965 
L 296.001483 208.518851 
z
" style="fill:#1a6599;fill-opacity:0.2;"/>
    <path clip-path="url(#pfd83277d05)" d="M 348.399134 261.918161 
L 374.863324 288.888252 
L 390.928838 270.386502 
L 364.577371 243.647899 
z
" style="fill:#185b89;fill-opacity:0.2;"/>
    <path clip-path="url(#pfd83277d05)" d="M 417.457718 297.305125 
L 444.165808 324.40559 
L 459.800246 305.672227 
L 433.207899 278.804936 
z
" style="fill:#185b89;fill-opacity:0.2;"/>
    <path clip-path="url(#pfd83277d05)" d="M 305.616551 253.399468 
L 332.014807 280.421164 
L 348.399134 261.918161 
L 322.112448 235.128965 
z
" style="fill:#185b89;fill-opacity:0.2;"/>
    <path clip-path="url(#pfd83277d05)" d="M 374.863324 288.888252 
L 401.506819 316.041078 
L 417.457718 297.305125 
L 390.928838 270.386502 
z
" style="fill:#185b89;fill-opacity:0.2;"/>
    <path clip-path="url(#pfd83277d05)" d="M 444.165808 324.40559 
L 471.05493 351.689746 
L 486.571698 332.720474 
L 459.800246 305.672227 
z
" style="fill:#165581;fill-opacity:0.2;"/>
    <path clip-path="url(#pfd83277d05)" d="M 262.578827 244.829972 
L 288.909889 271.90341 
L 305.616551 253.399468 
L 279.39588 226.55955 
z
" style="fill:#185b89;fill-opacity:0.2;"/>
    <path clip-path="url(#pfd83277d05)" d="M 332.014807 280.421164 
L 358.592458 307.626493 
L 374.863324 288.888252 
L 348.399134 261.918161 
z
" style="fill:#185b89;fill-opacity:0.2;"/>
    <path clip-path="url(#pfd83277d05)" d="M 401.506819 316.041078 
L 428.331449 343.3785 
L 444.165808 324.40559 
L 417.457718 297.305125 
z
" style="fill:#185b89;fill-opacity:0.2;"/>
    <path clip-path="url(#pfd83277d05)" d="M 471.05493 351.689746 
L 498.12693 379.159468 
L 513.524072 359.951514 
L 486.571698 332.720474 
z
" style="fill:#165581;fill-opacity:0.2;"/>
    <path clip-path="url(#pfd83277d05)" d="M 288.909889 271.90341 
L 315.420426 299.161384 
L 332.014807 280.421164 
L 305.616551 253.399468 
z
" style="fill:#185b89;fill-opacity:0.2;"/>
    <path clip-path="url(#pfd83277d05)" d="M 358.592458 307.626493 
L 385.351339 335.017331 
L 401.506819 316.041078 
L 374.863324 288.888252 
z
" style="fill:#185b89;fill-opacity:0.2;"/>
    <path clip-path="url(#pfd83277d05)" d="M 428.331449 343.3785 
L 455.339068 370.90241 
L 471.05493 351.689746 
L 444.165808 324.40559 
z
" style="fill:#165581;fill-opacity:0.2;"/>
    <path clip-path="url(#pfd83277d05)" d="M 498.12693 379.159468 
L 525.383681 406.816655 
L 540.659207 387.367204 
L 513.524072 359.951514 
z
" style="fill:#185b89;fill-opacity:0.2;"/>
    <path clip-path="url(#pfd83277d05)" d="M 245.54626 263.334533 
L 271.988395 290.645295 
L 288.909889 271.90341 
L 262.578827 244.829972 
z
" style="fill:#185b89;fill-opacity:0.2;"/>
    <path clip-path="url(#pfd83277d05)" d="M 315.420426 299.161384 
L 342.11228 326.605787 
L 358.592458 307.626493 
L 332.014807 280.421164 
z
" style="fill:#185b89;fill-opacity:0.2;"/>
    <path clip-path="url(#pfd83277d05)" d="M 385.351339 335.017331 
L 412.29331 362.595584 
L 428.331449 343.3785 
L 401.506819 316.041078 
z
" style="fill:#185b89;fill-opacity:0.2;"/>
    <path clip-path="url(#pfd83277d05)" d="M 455.339068 370.90241 
L 482.531553 398.61472 
L 498.12693 379.159468 
L 471.05493 351.689746 
z
" style="fill:#165581;fill-opacity:0.2;"/>
    <path clip-path="url(#pfd83277d05)" d="M 271.988395 290.645295 
L 298.611925 318.143412 
L 315.420426 299.161384 
L 288.909889 271.90341 
z
" style="fill:#185b89;fill-opacity:0.2;"/>
    <path clip-path="url(#pfd83277d05)" d="M 342.11228 326.605787 
L 368.987318 354.238538 
L 385.351339 335.017331 
L 358.592458 307.626493 
z
" style="fill:#185b89;fill-opacity:0.2;"/>
    <path clip-path="url(#pfd83277d05)" d="M 412.29331 362.595584 
L 439.420256 390.36318 
L 455.339068 370.90241 
L 428.331449 343.3785 
z
" style="fill:#165581;fill-opacity:0.2;"/>
    <path clip-path="url(#pfd83277d05)" d="M 482.531553 398.61472 
L 509.910811 426.517372 
L 525.383681 406.816655 
L 498.12693 379.159468 
z
" style="fill:#185b89;fill-opacity:0.2;"/>
    <path clip-path="url(#pfd83277d05)" d="M 228.294008 282.077764 
L 254.847898 309.629743 
L 271.988395 290.645295 
L 245.54626 263.334533 
z
" style="fill:#185b89;fill-opacity:0.2;"/>
    <path clip-path="url(#pfd83277d05)" d="M 298.611925 318.143412 
L 325.418724 345.830817 
L 342.11228 326.605787 
L 315.420426 299.161384 
z
" style="fill:#185b89;fill-opacity:0.2;"/>
    <path clip-path="url(#pfd83277d05)" d="M 368.987318 354.238538 
L 396.047431 382.061583 
L 412.29331 362.595584 
L 385.351339 335.017331 
z
" style="fill:#185b89;fill-opacity:0.2;"/>
    <path clip-path="url(#pfd83277d05)" d="M 439.420256 390.36318 
L 466.734089 418.322077 
L 482.531553 398.61472 
L 455.339068 370.90241 
z
" style="fill:#165581;fill-opacity:0.2;"/>
    <path clip-path="url(#pfd83277d05)" d="M 254.847898 309.629743 
L 281.585133 337.371958 
L 298.611925 318.143412 
L 271.988395 290.645295 
z
" style="fill:#185b89;fill-opacity:0.2;"/>
    <path clip-path="url(#pfd83277d05)" d="M 325.418724 345.830817 
L 352.41069 373.709473 
L 368.987318 354.238538 
L 342.11228 326.605787 
z
" style="fill:#185b89;fill-opacity:0.2;"/>
    <path clip-path="url(#pfd83277d05)" d="M 396.047431 382.061583 
L 423.294538 410.076894 
L 439.420256 390.36318 
L 412.29331 362.595584 
z
" style="fill:#165581;fill-opacity:0.2;"/>
    <path clip-path="url(#pfd83277d05)" d="M 466.734089 418.322077 
L 494.236747 446.474258 
L 509.910811 426.517372 
L 482.531553 398.61472 
z
" style="fill:#185b89;fill-opacity:0.2;"/>
    <path clip-path="url(#pfd83277d05)" d="M 210.817795 301.064313 
L 237.48412 328.861492 
L 254.847898 309.629743 
L 228.294008 282.077764 
z
" style="fill:#185b89;fill-opacity:0.2;"/>
    <path clip-path="url(#pfd83277d05)" d="M 281.585133 337.371958 
L 308.507619 365.306386 
L 325.418724 345.830817 
L 298.611925 318.143412 
z
" style="fill:#185b89;fill-opacity:0.2;"/>
    <path clip-path="url(#pfd83277d05)" d="M 352.41069 373.709473 
L 379.589749 401.781367 
L 396.047431 382.061583 
L 368.987318 354.238538 
z
" style="fill:#185b89;fill-opacity:0.2;"/>
    <path clip-path="url(#pfd83277d05)" d="M 423.294538 410.076894 
L 450.730584 438.28647 
L 466.734089 418.322077 
L 439.420256 390.36318 
z
" style="fill:#165581;fill-opacity:0.2;"/>
    <path clip-path="url(#pfd83277d05)" d="M 237.48412 328.861492 
L 264.33577 356.851856 
L 281.585133 337.371958 
L 254.847898 309.629743 
z
" style="fill:#185b89;fill-opacity:0.2;"/>
    <path clip-path="url(#pfd83277d05)" d="M 308.507619 365.306386 
L 335.617287 393.435033 
L 352.41069 373.709473 
L 325.418724 345.830817 
z
" style="fill:#185b89;fill-opacity:0.2;"/>
    <path clip-path="url(#pfd83277d05)" d="M 379.589749 401.781367 
L 406.957852 430.048515 
L 423.294538 410.076894 
L 396.047431 382.061583 
z
" style="fill:#165581;fill-opacity:0.2;"/>
    <path clip-path="url(#pfd83277d05)" d="M 450.730584 438.28647 
L 478.357541 466.69234 
L 494.236747 446.474258 
L 466.734089 418.322077 
z
" style="fill:#185b89;fill-opacity:0.2;"/>
    <path clip-path="url(#pfd83277d05)" d="M 193.11323 320.298947 
L 219.892669 348.345408 
L 237.48412 328.861492 
L 210.817795 301.064313 
z
" style="fill:#185b89;fill-opacity:0.2;"/>
    <path clip-path="url(#pfd83277d05)" d="M 264.33577 356.851856 
L 291.374684 385.037424 
L 308.507619 365.306386 
L 281.585133 337.371958 
z
" style="fill:#185b89;fill-opacity:0.2;"/>
    <path clip-path="url(#pfd83277d05)" d="M 335.617287 393.435033 
L 362.916096 421.75993 
L 379.589749 401.781367 
L 352.41069 373.709473 
z
" style="fill:#185b89;fill-opacity:0.2;"/>
    <path clip-path="url(#pfd83277d05)" d="M 406.957852 430.048515 
L 434.516979 458.512963 
L 450.730584 438.28647 
L 423.294538 410.076894 
z
" style="fill:#165581;fill-opacity:0.2;"/>
    <path clip-path="url(#pfd83277d05)" d="M 219.892669 348.345408 
L 246.859444 376.588067 
L 264.33577 356.851856 
L 237.48412 328.861492 
z
" style="fill:#185b89;fill-opacity:0.2;"/>
    <path clip-path="url(#pfd83277d05)" d="M 291.374684 385.037424 
L 318.602826 413.420246 
L 335.617287 393.435033 
L 308.507619 365.306386 
z
" style="fill:#185b89;fill-opacity:0.2;"/>
    <path clip-path="url(#pfd83277d05)" d="M 362.916096 421.75993 
L 390.406032 450.283139 
L 406.957852 430.048515 
L 379.589749 401.781367 
z
" style="fill:#165581;fill-opacity:0.2;"/>
    <path clip-path="url(#pfd83277d05)" d="M 434.516979 458.512963 
L 462.269137 487.176782 
L 478.357541 466.69234 
L 450.730584 438.28647 
z
" style="fill:#1a6295;fill-opacity:0.2;"/>
    <path clip-path="url(#pfd83277d05)" d="M 175.175809 339.786561 
L 202.069038 368.086481 
L 219.892669 348.345408 
L 193.11323 320.298947 
z
" style="fill:#185b89;fill-opacity:0.2;"/>
    <path clip-path="url(#pfd83277d05)" d="M 246.859444 376.588067 
L 274.015526 405.028991 
L 291.374684 385.037424 
L 264.33577 356.851856 
z
" style="fill:#185b89;fill-opacity:0.2;"/>
    <path clip-path="url(#pfd83277d05)" d="M 318.602826 413.420246 
L 346.022191 442.0024 
L 362.916096 421.75993 
L 335.617287 393.435033 
z
" style="fill:#185b89;fill-opacity:0.2;"/>
    <path clip-path="url(#pfd83277d05)" d="M 390.406032 450.283139 
L 418.089111 479.006749 
L 434.516979 458.512963 
L 406.957852 430.048515 
z
" style="fill:#165581;fill-opacity:0.2;"/>
    <path clip-path="url(#pfd83277d05)" d="M 202.069038 368.086481 
L 229.151644 396.585683 
L 246.859444 376.588067 
L 219.892669 348.345408 
z
" style="fill:#185b89;fill-opacity:0.2;"/>
    <path clip-path="url(#pfd83277d05)" d="M 274.015526 405.028991 
L 301.362916 433.670274 
L 318.602826 413.420246 
L 291.374684 385.037424 
z
" style="fill:#185b89;fill-opacity:0.2;"/>
    <path clip-path="url(#pfd83277d05)" d="M 346.022191 442.0024 
L 373.634801 470.785993 
L 390.406032 450.283139 
L 362.916096 421.75993 
z
" style="fill:#165581;fill-opacity:0.2;"/>
    <path clip-path="url(#pfd83277d05)" d="M 418.089111 479.006749 
L 445.967374 507.93288 
L 462.269137 487.176782 
L 434.516979 458.512963 
z
" style="fill:#103c5a;fill-opacity:0.2;"/>
    <path clip-path="url(#pfd83277d05)" d="M 229.151644 396.585683 
L 256.425634 425.28628 
L 274.015526 405.028991 
L 246.859444 376.588067 
z
" style="fill:#185b89;fill-opacity:0.2;"/>
    <path clip-path="url(#pfd83277d05)" d="M 301.362916 433.670274 
L 328.903643 462.514042 
L 346.022191 442.0024 
L 318.602826 413.420246 
z
" style="fill:#185b89;fill-opacity:0.2;"/>
    <path clip-path="url(#pfd83277d05)" d="M 373.634801 470.785993 
L 401.442704 499.773163 
L 418.089111 479.006749 
L 390.406032 450.283139 
z
" style="fill:#155079;fill-opacity:0.2;"/>
    <path clip-path="url(#pfd83277d05)" d="M 256.425634 425.28628 
L 283.893044 454.190415 
L 301.362916 433.670274 
L 274.015526 405.028991 
z
" style="fill:#185b89;fill-opacity:0.2;"/>
    <path clip-path="url(#pfd83277d05)" d="M 328.903643 462.514042 
L 356.639765 491.562449 
L 373.634801 470.785993 
L 346.022191 442.0024 
z
" style="fill:#165581;fill-opacity:0.2;"/>
    <path clip-path="url(#pfd83277d05)" d="M 401.442704 499.773163 
L 429.447981 528.966076 
L 445.967374 507.93288 
L 418.089111 479.006749 
z
" style="fill:#103c5a;fill-opacity:0.2;"/>
    <path clip-path="url(#pfd83277d05)" d="M 283.893044 454.190415 
L 311.55594 483.30026 
L 328.903643 462.514042 
L 301.362916 433.670274 
z
" style="fill:#185b89;fill-opacity:0.2;"/>
    <path clip-path="url(#pfd83277d05)" d="M 356.639765 491.562449 
L 384.573368 520.817681 
L 401.442704 499.773163 
L 373.634801 470.785993 
z
" style="fill:#1f77b4;fill-opacity:0.2;"/>
    <path clip-path="url(#pfd83277d05)" d="M 311.55594 483.30026 
L 339.416415 512.618019 
L 356.639765 491.562449 
L 328.903643 462.514042 
z
" style="fill:#155079;fill-opacity:0.2;"/>
    <path clip-path="url(#pfd83277d05)" d="M 384.573368 520.817681 
L 412.706569 550.281954 
L 429.447981 528.966076 
L 401.442704 499.773163 
z
" style="fill:#1e72ac;fill-opacity:0.2;"/>
    <path clip-path="url(#pfd83277d05)" d="M 339.416415 512.618019 
L 367.476594 542.145928 
L 384.573368 520.817681 
L 356.639765 491.562449 
z
" style="fill:#155079;fill-opacity:0.2;"/>
    <path clip-path="url(#pfd83277d05)" d="M 367.476594 542.145928 
L 395.738632 571.886254 
L 412.706569 550.281954 
L 384.573368 520.817681 
z
" style="fill:#1e72ac;fill-opacity:0.2;"/>
   </g>
  </g>
 </g>
 <defs>
  <clipPath id="pfd83277d05">
   <rect height="566.5968" width="534.564" x="86.22" y="88.3008"/>
  </clipPath>
 </defs>
</svg>
