<?xml version="1.0" encoding="utf-8" standalone="no"?>
<!DOCTYPE svg PUBLIC "-//W3C//DTD SVG 1.1//EN"
  "http://www.w3.org/Graphics/SVG/1.1/DTD/svg11.dtd">
<!-- Created with matplotlib (https://matplotlib.org/) -->
<svg height="709.2pt" version="1.1" viewBox="0 0 689.76 709.2" width="689.76pt" xmlns="http://www.w3.org/2000/svg" xmlns:xlink="http://www.w3.org/1999/xlink">
 <defs>
  <style type="text/css">
*{stroke-linecap:butt;stroke-linejoin:round;}
  </style>
 </defs>
 <g id="figure_1">
  <g id="patch_1">
   <path d="M 0 709.2 
L 689.76 709.2 
L 689.76 0 
L 0 0 
z
" style="fill:#ffffff;"/>
  </g>
  <g id="patch_2">
   <path d="M 86.22 631.188 
L 620.784 631.188 
L 620.784 85.104 
L 86.22 85.104 
z
" style="fill:#ffffff;"/>
  </g>
  <g id="pane3d_1">
   <g id="patch_3">
    <path d="M 150.661786 498.234141 
L 354.196909 428.859903 
L 354.011653 152.073461 
L 144.259379 203.04086 
" style="fill:#f2f2f2;opacity:0.5;stroke:#f2f2f2;stroke-linejoin:miter;"/>
   </g>
  </g>
  <g id="pane3d_2">
   <g id="patch_4">
    <path d="M 354.196909 428.859903 
L 569.819777 493.460802 
L 576.162293 199.527336 
L 354.011653 152.073461 
" style="fill:#e6e6e6;opacity:0.5;stroke:#e6e6e6;stroke-linejoin:miter;"/>
   </g>
  </g>
  <g id="pane3d_3">
   <g id="patch_5">
    <path d="M 150.661786 498.234141 
L 368.229578 572.824846 
L 569.819777 493.460802 
L 354.196909 428.859903 
" style="fill:#ececec;opacity:0.5;stroke:#ececec;stroke-linejoin:miter;"/>
   </g>
  </g>
  <g id="axis3d_1">
   <g id="line2d_1">
    <path d="M 150.661786 498.234141 
L 368.229578 572.824846 
" style="fill:none;stroke:#000000;stroke-linecap:square;stroke-width:0.8;"/>
   </g>
   <g id="text_1">
    <!-- X -->
    <defs>
     <path d="M 49.8125 37.203125 
L 75.09375 0 
L 55.515625 0 
L 38.484375 24.90625 
L 21.578125 0 
L 1.90625 0 
L 27.203125 37.203125 
L 2.875 72.90625 
L 22.515625 72.90625 
L 38.484375 49.421875 
L 54.390625 72.90625 
L 74.125 72.90625 
z
" id="DejaVuSans-Bold-88"/>
    </defs>
    <g transform="translate(225.719803 581.739536)scale(0.12 -0.12)">
     <use xlink:href="#DejaVuSans-Bold-88"/>
    </g>
   </g>
   <g id="Line3DCollection_1">
    <path d="M 169.378598 504.650992 
L 372.828489 434.441949 
L 373.173942 156.166741 
" style="fill:none;stroke:#b0b0b0;stroke-width:0.8;"/>
    <path d="M 191.958264 512.39218 
L 395.284687 441.169856 
L 396.27816 161.102062 
" style="fill:none;stroke:#b0b0b0;stroke-width:0.8;"/>
    <path d="M 214.876587 520.249473 
L 418.054635 447.991763 
L 419.714529 166.108334 
" style="fill:none;stroke:#b0b0b0;stroke-width:0.8;"/>
    <path d="M 238.141243 528.225503 
L 441.144955 454.909653 
L 443.490263 171.187098 
" style="fill:none;stroke:#b0b0b0;stroke-width:0.8;"/>
    <path d="M 261.760143 536.322981 
L 464.562456 461.925568 
L 467.612787 176.339941 
" style="fill:none;stroke:#b0b0b0;stroke-width:0.8;"/>
    <path d="M 285.74144 544.544702 
L 488.314143 469.041605 
L 492.089745 181.568494 
" style="fill:none;stroke:#b0b0b0;stroke-width:0.8;"/>
    <path d="M 310.093539 552.893549 
L 512.407221 476.259924 
L 516.929006 186.87444 
" style="fill:none;stroke:#b0b0b0;stroke-width:0.8;"/>
    <path d="M 334.825106 561.372493 
L 536.849102 483.582744 
L 542.138673 192.259508 
" style="fill:none;stroke:#b0b0b0;stroke-width:0.8;"/>
    <path d="M 359.945082 569.984599 
L 561.647417 491.012352 
L 567.727095 197.725483 
" style="fill:none;stroke:#b0b0b0;stroke-width:0.8;"/>
   </g>
   <g id="xtick_1">
    <g id="line2d_2">
     <path d="M 171.123017 504.049006 
L 165.883692 505.857058 
" style="fill:none;stroke:#000000;stroke-linecap:square;stroke-width:0.8;"/>
    </g>
    <g id="text_2">
     <!-- −0.4 -->
     <defs>
      <path d="M 10.59375 35.5 
L 73.1875 35.5 
L 73.1875 27.203125 
L 10.59375 27.203125 
z
" id="DejaVuSans-8722"/>
      <path d="M 31.78125 66.40625 
Q 24.171875 66.40625 20.328125 58.90625 
Q 16.5 51.421875 16.5 36.375 
Q 16.5 21.390625 20.328125 13.890625 
Q 24.171875 6.390625 31.78125 6.390625 
Q 39.453125 6.390625 43.28125 13.890625 
Q 47.125 21.390625 47.125 36.375 
Q 47.125 51.421875 43.28125 58.90625 
Q 39.453125 66.40625 31.78125 66.40625 
z
M 31.78125 74.21875 
Q 44.046875 74.21875 50.515625 64.515625 
Q 56.984375 54.828125 56.984375 36.375 
Q 56.984375 17.96875 50.515625 8.265625 
Q 44.046875 -1.421875 31.78125 -1.421875 
Q 19.53125 -1.421875 13.0625 8.265625 
Q 6.59375 17.96875 6.59375 36.375 
Q 6.59375 54.828125 13.0625 64.515625 
Q 19.53125 74.21875 31.78125 74.21875 
z
" id="DejaVuSans-48"/>
      <path d="M 10.6875 12.40625 
L 21 12.40625 
L 21 0 
L 10.6875 0 
z
" id="DejaVuSans-46"/>
      <path d="M 37.796875 64.3125 
L 12.890625 25.390625 
L 37.796875 25.390625 
z
M 35.203125 72.90625 
L 47.609375 72.90625 
L 47.609375 25.390625 
L 58.015625 25.390625 
L 58.015625 17.1875 
L 47.609375 17.1875 
L 47.609375 0 
L 37.796875 0 
L 37.796875 17.1875 
L 4.890625 17.1875 
L 4.890625 26.703125 
z
" id="DejaVuSans-52"/>
     </defs>
     <g transform="translate(148.539012 527.123071)scale(0.1 -0.1)">
      <use xlink:href="#DejaVuSans-8722"/>
      <use x="83.789062" xlink:href="#DejaVuSans-48"/>
      <use x="147.412109" xlink:href="#DejaVuSans-46"/>
      <use x="179.199219" xlink:href="#DejaVuSans-52"/>
     </g>
    </g>
   </g>
   <g id="xtick_2">
    <g id="line2d_3">
     <path d="M 193.702493 511.781202 
L 188.463694 513.616278 
" style="fill:none;stroke:#000000;stroke-linecap:square;stroke-width:0.8;"/>
    </g>
    <g id="text_3">
     <!-- −0.3 -->
     <defs>
      <path d="M 40.578125 39.3125 
Q 47.65625 37.796875 51.625 33 
Q 55.609375 28.21875 55.609375 21.1875 
Q 55.609375 10.40625 48.1875 4.484375 
Q 40.765625 -1.421875 27.09375 -1.421875 
Q 22.515625 -1.421875 17.65625 -0.515625 
Q 12.796875 0.390625 7.625 2.203125 
L 7.625 11.71875 
Q 11.71875 9.328125 16.59375 8.109375 
Q 21.484375 6.890625 26.8125 6.890625 
Q 36.078125 6.890625 40.9375 10.546875 
Q 45.796875 14.203125 45.796875 21.1875 
Q 45.796875 27.640625 41.28125 31.265625 
Q 36.765625 34.90625 28.71875 34.90625 
L 20.21875 34.90625 
L 20.21875 43.015625 
L 29.109375 43.015625 
Q 36.375 43.015625 40.234375 45.921875 
Q 44.09375 48.828125 44.09375 54.296875 
Q 44.09375 59.90625 40.109375 62.90625 
Q 36.140625 65.921875 28.71875 65.921875 
Q 24.65625 65.921875 20.015625 65.03125 
Q 15.375 64.15625 9.8125 62.3125 
L 9.8125 71.09375 
Q 15.4375 72.65625 20.34375 73.4375 
Q 25.25 74.21875 29.59375 74.21875 
Q 40.828125 74.21875 47.359375 69.109375 
Q 53.90625 64.015625 53.90625 55.328125 
Q 53.90625 49.265625 50.4375 45.09375 
Q 46.96875 40.921875 40.578125 39.3125 
z
" id="DejaVuSans-51"/>
     </defs>
     <g transform="translate(171.093521 534.988775)scale(0.1 -0.1)">
      <use xlink:href="#DejaVuSans-8722"/>
      <use x="83.789062" xlink:href="#DejaVuSans-48"/>
      <use x="147.412109" xlink:href="#DejaVuSans-46"/>
      <use x="179.199219" xlink:href="#DejaVuSans-51"/>
     </g>
    </g>
   </g>
   <g id="xtick_3">
    <g id="line2d_4">
     <path d="M 216.620423 519.6293 
L 211.382756 521.49201 
" style="fill:none;stroke:#000000;stroke-linecap:square;stroke-width:0.8;"/>
    </g>
    <g id="text_4">
     <!-- −0.2 -->
     <defs>
      <path d="M 19.1875 8.296875 
L 53.609375 8.296875 
L 53.609375 0 
L 7.328125 0 
L 7.328125 8.296875 
Q 12.9375 14.109375 22.625 23.890625 
Q 32.328125 33.6875 34.8125 36.53125 
Q 39.546875 41.84375 41.421875 45.53125 
Q 43.3125 49.21875 43.3125 52.78125 
Q 43.3125 58.59375 39.234375 62.25 
Q 35.15625 65.921875 28.609375 65.921875 
Q 23.96875 65.921875 18.8125 64.3125 
Q 13.671875 62.703125 7.8125 59.421875 
L 7.8125 69.390625 
Q 13.765625 71.78125 18.9375 73 
Q 24.125 74.21875 28.421875 74.21875 
Q 39.75 74.21875 46.484375 68.546875 
Q 53.21875 62.890625 53.21875 53.421875 
Q 53.21875 48.921875 51.53125 44.890625 
Q 49.859375 40.875 45.40625 35.40625 
Q 44.1875 33.984375 37.640625 27.21875 
Q 31.109375 20.453125 19.1875 8.296875 
z
" id="DejaVuSans-50"/>
     </defs>
     <g transform="translate(193.98691 542.972659)scale(0.1 -0.1)">
      <use xlink:href="#DejaVuSans-8722"/>
      <use x="83.789062" xlink:href="#DejaVuSans-48"/>
      <use x="147.412109" xlink:href="#DejaVuSans-46"/>
      <use x="179.199219" xlink:href="#DejaVuSans-50"/>
     </g>
    </g>
   </g>
   <g id="xtick_4">
    <g id="line2d_5">
     <path d="M 239.884477 527.595925 
L 234.648573 529.486898 
" style="fill:none;stroke:#000000;stroke-linecap:square;stroke-width:0.8;"/>
    </g>
    <g id="text_5">
     <!-- −0.1 -->
     <defs>
      <path d="M 12.40625 8.296875 
L 28.515625 8.296875 
L 28.515625 63.921875 
L 10.984375 60.40625 
L 10.984375 69.390625 
L 28.421875 72.90625 
L 38.28125 72.90625 
L 38.28125 8.296875 
L 54.390625 8.296875 
L 54.390625 0 
L 12.40625 0 
z
" id="DejaVuSans-49"/>
     </defs>
     <g transform="translate(217.226873 551.077409)scale(0.1 -0.1)">
      <use xlink:href="#DejaVuSans-8722"/>
      <use x="83.789062" xlink:href="#DejaVuSans-48"/>
      <use x="147.412109" xlink:href="#DejaVuSans-46"/>
      <use x="179.199219" xlink:href="#DejaVuSans-49"/>
     </g>
    </g>
   </g>
   <g id="xtick_5">
    <g id="line2d_6">
     <path d="M 263.502553 535.683783 
L 258.269076 537.603668 
" style="fill:none;stroke:#000000;stroke-linecap:square;stroke-width:0.8;"/>
    </g>
    <g id="text_6">
     <!-- 0.0 -->
     <g transform="translate(245.011184 559.305789)scale(0.1 -0.1)">
      <use xlink:href="#DejaVuSans-48"/>
      <use x="63.623047" xlink:href="#DejaVuSans-46"/>
      <use x="95.410156" xlink:href="#DejaVuSans-48"/>
     </g>
    </g>
   </g>
   <g id="xtick_6">
    <g id="line2d_7">
     <path d="M 287.482796 543.895662 
L 282.252436 545.845127 
" style="fill:none;stroke:#000000;stroke-linecap:square;stroke-width:0.8;"/>
    </g>
    <g id="text_7">
     <!-- 0.1 -->
     <g transform="translate(268.968329 567.660651)scale(0.1 -0.1)">
      <use xlink:href="#DejaVuSans-48"/>
      <use x="63.623047" xlink:href="#DejaVuSans-46"/>
      <use x="95.410156" xlink:href="#DejaVuSans-49"/>
     </g>
    </g>
   </g>
   <g id="xtick_7">
    <g id="line2d_8">
     <path d="M 311.833601 552.234438 
L 306.60708 554.214172 
" style="fill:none;stroke:#000000;stroke-linecap:square;stroke-width:0.8;"/>
    </g>
    <g id="text_8">
     <!-- 0.2 -->
     <g transform="translate(293.296579 576.144932)scale(0.1 -0.1)">
      <use xlink:href="#DejaVuSans-48"/>
      <use x="63.623047" xlink:href="#DejaVuSans-46"/>
      <use x="95.410156" xlink:href="#DejaVuSans-50"/>
     </g>
    </g>
   </g>
   <g id="xtick_8">
    <g id="line2d_9">
     <path d="M 336.563622 560.703074 
L 331.341697 562.713787 
" style="fill:none;stroke:#000000;stroke-linecap:square;stroke-width:0.8;"/>
    </g>
    <g id="text_9">
     <!-- 0.3 -->
     <g transform="translate(318.004625 584.761664)scale(0.1 -0.1)">
      <use xlink:href="#DejaVuSans-48"/>
      <use x="63.623047" xlink:href="#DejaVuSans-46"/>
      <use x="95.410156" xlink:href="#DejaVuSans-51"/>
     </g>
    </g>
   </g>
   <g id="xtick_9">
    <g id="line2d_10">
     <path d="M 361.681788 569.304629 
L 356.465248 571.347053 
" style="fill:none;stroke:#000000;stroke-linecap:square;stroke-width:0.8;"/>
    </g>
    <g id="text_10">
     <!-- 0.4 -->
     <g transform="translate(343.101429 593.513972)scale(0.1 -0.1)">
      <use xlink:href="#DejaVuSans-48"/>
      <use x="63.623047" xlink:href="#DejaVuSans-46"/>
      <use x="95.410156" xlink:href="#DejaVuSans-52"/>
     </g>
    </g>
   </g>
  </g>
  <g id="axis3d_2">
   <g id="line2d_11">
    <path d="M 569.819777 493.460802 
L 368.229578 572.824846 
" style="fill:none;stroke:#000000;stroke-linecap:square;stroke-width:0.8;"/>
   </g>
   <g id="text_11">
    <!-- Y -->
    <defs>
     <path d="M -0.984375 72.90625 
L 19.578125 72.90625 
L 36.1875 46.921875 
L 52.78125 72.90625 
L 73.390625 72.90625 
L 45.609375 30.71875 
L 45.609375 0 
L 26.8125 0 
L 26.8125 30.71875 
z
" id="DejaVuSans-Bold-89"/>
    </defs>
    <g transform="translate(495.335097 578.431505)scale(0.12 -0.12)">
     <use xlink:href="#DejaVuSans-Bold-89"/>
    </g>
   </g>
   <g id="Line3DCollection_2">
    <path d="M 154.918091 200.450915 
L 160.984525 494.715671 
L 378.500675 568.781218 
" style="fill:none;stroke:#b0b0b0;stroke-width:0.8;"/>
    <path d="M 197.694421 190.056757 
L 202.434061 480.587741 
L 419.6921 552.564566 
" style="fill:none;stroke:#b0b0b0;stroke-width:0.8;"/>
    <path d="M 239.279065 179.952165 
L 242.761989 466.842107 
L 459.691077 536.817369 
" style="fill:none;stroke:#b0b0b0;stroke-width:0.8;"/>
    <path d="M 279.721136 170.125205 
L 282.013226 453.46346 
L 498.548646 521.519533 
" style="fill:none;stroke:#b0b0b0;stroke-width:0.8;"/>
    <path d="M 319.067085 160.56459 
L 320.230323 440.437295 
L 536.312979 506.652093 
" style="fill:none;stroke:#b0b0b0;stroke-width:0.8;"/>
   </g>
   <g id="xtick_10">
    <g id="line2d_12">
     <path d="M 376.636498 568.146455 
L 382.23547 570.052938 
" style="fill:none;stroke:#000000;stroke-linecap:square;stroke-width:0.8;"/>
    </g>
    <g id="text_12">
     <!-- −0.8 -->
     <defs>
      <path d="M 31.78125 34.625 
Q 24.75 34.625 20.71875 30.859375 
Q 16.703125 27.09375 16.703125 20.515625 
Q 16.703125 13.921875 20.71875 10.15625 
Q 24.75 6.390625 31.78125 6.390625 
Q 38.8125 6.390625 42.859375 10.171875 
Q 46.921875 13.96875 46.921875 20.515625 
Q 46.921875 27.09375 42.890625 30.859375 
Q 38.875 34.625 31.78125 34.625 
z
M 21.921875 38.8125 
Q 15.578125 40.375 12.03125 44.71875 
Q 8.5 49.078125 8.5 55.328125 
Q 8.5 64.0625 14.71875 69.140625 
Q 20.953125 74.21875 31.78125 74.21875 
Q 42.671875 74.21875 48.875 69.140625 
Q 55.078125 64.0625 55.078125 55.328125 
Q 55.078125 49.078125 51.53125 44.71875 
Q 48 40.375 41.703125 38.8125 
Q 48.828125 37.15625 52.796875 32.3125 
Q 56.78125 27.484375 56.78125 20.515625 
Q 56.78125 9.90625 50.3125 4.234375 
Q 43.84375 -1.421875 31.78125 -1.421875 
Q 19.734375 -1.421875 13.25 4.234375 
Q 6.78125 9.90625 6.78125 20.515625 
Q 6.78125 27.484375 10.78125 32.3125 
Q 14.796875 37.15625 21.921875 38.8125 
z
M 18.3125 54.390625 
Q 18.3125 48.734375 21.84375 45.5625 
Q 25.390625 42.390625 31.78125 42.390625 
Q 38.140625 42.390625 41.71875 45.5625 
Q 45.3125 48.734375 45.3125 54.390625 
Q 45.3125 60.0625 41.71875 63.234375 
Q 38.140625 66.40625 31.78125 66.40625 
Q 25.390625 66.40625 21.84375 63.234375 
Q 18.3125 60.0625 18.3125 54.390625 
z
" id="DejaVuSans-56"/>
     </defs>
     <g transform="translate(375.87978 592.06376)scale(0.1 -0.1)">
      <use xlink:href="#DejaVuSans-8722"/>
      <use x="83.789062" xlink:href="#DejaVuSans-48"/>
      <use x="147.412109" xlink:href="#DejaVuSans-46"/>
      <use x="179.199219" xlink:href="#DejaVuSans-56"/>
     </g>
    </g>
   </g>
   <g id="xtick_11">
    <g id="line2d_13">
     <path d="M 417.831954 551.948306 
L 423.418725 553.799184 
" style="fill:none;stroke:#000000;stroke-linecap:square;stroke-width:0.8;"/>
    </g>
    <g id="text_13">
     <!-- −0.6 -->
     <defs>
      <path d="M 33.015625 40.375 
Q 26.375 40.375 22.484375 35.828125 
Q 18.609375 31.296875 18.609375 23.390625 
Q 18.609375 15.53125 22.484375 10.953125 
Q 26.375 6.390625 33.015625 6.390625 
Q 39.65625 6.390625 43.53125 10.953125 
Q 47.40625 15.53125 47.40625 23.390625 
Q 47.40625 31.296875 43.53125 35.828125 
Q 39.65625 40.375 33.015625 40.375 
z
M 52.59375 71.296875 
L 52.59375 62.3125 
Q 48.875 64.0625 45.09375 64.984375 
Q 41.3125 65.921875 37.59375 65.921875 
Q 27.828125 65.921875 22.671875 59.328125 
Q 17.53125 52.734375 16.796875 39.40625 
Q 19.671875 43.65625 24.015625 45.921875 
Q 28.375 48.1875 33.59375 48.1875 
Q 44.578125 48.1875 50.953125 41.515625 
Q 57.328125 34.859375 57.328125 23.390625 
Q 57.328125 12.15625 50.6875 5.359375 
Q 44.046875 -1.421875 33.015625 -1.421875 
Q 20.359375 -1.421875 13.671875 8.265625 
Q 6.984375 17.96875 6.984375 36.375 
Q 6.984375 53.65625 15.1875 63.9375 
Q 23.390625 74.21875 37.203125 74.21875 
Q 40.921875 74.21875 44.703125 73.484375 
Q 48.484375 72.75 52.59375 71.296875 
z
" id="DejaVuSans-54"/>
     </defs>
     <g transform="translate(416.998108 575.590019)scale(0.1 -0.1)">
      <use xlink:href="#DejaVuSans-8722"/>
      <use x="83.789062" xlink:href="#DejaVuSans-48"/>
      <use x="147.412109" xlink:href="#DejaVuSans-46"/>
      <use x="179.199219" xlink:href="#DejaVuSans-54"/>
     </g>
    </g>
   </g>
   <g id="xtick_12">
    <g id="line2d_14">
     <path d="M 457.83551 536.218816 
L 463.408435 538.016485 
" style="fill:none;stroke:#000000;stroke-linecap:square;stroke-width:0.8;"/>
    </g>
    <g id="text_14">
     <!-- −0.4 -->
     <g transform="translate(456.924198 559.59394)scale(0.1 -0.1)">
      <use xlink:href="#DejaVuSans-8722"/>
      <use x="83.789062" xlink:href="#DejaVuSans-48"/>
      <use x="147.412109" xlink:href="#DejaVuSans-46"/>
      <use x="179.199219" xlink:href="#DejaVuSans-52"/>
     </g>
    </g>
   </g>
   <g id="xtick_13">
    <g id="line2d_15">
     <path d="M 496.698158 520.937933 
L 502.255744 522.684657 
" style="fill:none;stroke:#000000;stroke-linecap:square;stroke-width:0.8;"/>
    </g>
    <g id="text_15">
     <!-- −0.2 -->
     <g transform="translate(495.709162 544.055044)scale(0.1 -0.1)">
      <use xlink:href="#DejaVuSans-8722"/>
      <use x="83.789062" xlink:href="#DejaVuSans-48"/>
      <use x="147.412109" xlink:href="#DejaVuSans-46"/>
      <use x="179.199219" xlink:href="#DejaVuSans-50"/>
     </g>
    </g>
   </g>
   <g id="xtick_14">
    <g id="line2d_16">
     <path d="M 534.468018 506.086737 
L 540.008917 507.78465 
" style="fill:none;stroke:#000000;stroke-linecap:square;stroke-width:0.8;"/>
    </g>
    <g id="text_16">
     <!-- 0.0 -->
     <g transform="translate(537.591076 528.954007)scale(0.1 -0.1)">
      <use xlink:href="#DejaVuSans-48"/>
      <use x="63.623047" xlink:href="#DejaVuSans-46"/>
      <use x="95.410156" xlink:href="#DejaVuSans-48"/>
     </g>
    </g>
   </g>
  </g>
  <g id="axis3d_3">
   <g id="line2d_17">
    <path d="M 569.819777 493.460802 
L 576.162293 199.527336 
" style="fill:none;stroke:#000000;stroke-linecap:square;stroke-width:0.8;"/>
   </g>
   <g id="text_17">
    <!-- Z -->
    <defs>
     <path d="M 5.609375 72.90625 
L 66.890625 72.90625 
L 66.890625 61.53125 
L 27.78125 14.203125 
L 68.015625 14.203125 
L 68.015625 0 
L 4.5 0 
L 4.5 11.375 
L 43.609375 58.6875 
L 5.609375 58.6875 
z
" id="DejaVuSans-Bold-90"/>
    </defs>
    <g transform="translate(618.219386 351.515376)scale(0.12 -0.12)">
     <use xlink:href="#DejaVuSans-Bold-90"/>
    </g>
   </g>
   <g id="Line3DCollection_3">
    <path d="M 570.281171 472.078238 
L 354.183409 408.689165 
L 150.196096 476.762732 
" style="fill:none;stroke:#b0b0b0;stroke-width:0.8;"/>
    <path d="M 571.36597 421.80501 
L 354.151682 361.28711 
L 149.101159 426.278886 
" style="fill:none;stroke:#b0b0b0;stroke-width:0.8;"/>
    <path d="M 572.462059 371.008576 
L 354.119646 313.423073 
L 147.994772 375.267175 
" style="fill:none;stroke:#b0b0b0;stroke-width:0.8;"/>
    <path d="M 573.569615 319.680728 
L 354.087297 265.090269 
L 146.876757 323.719277 
" style="fill:none;stroke:#b0b0b0;stroke-width:0.8;"/>
    <path d="M 574.688819 267.813082 
L 354.054629 216.281778 
L 145.746928 271.626692 
" style="fill:none;stroke:#b0b0b0;stroke-width:0.8;"/>
    <path d="M 575.819855 215.397078 
L 354.021638 166.990541 
L 144.605097 218.980743 
" style="fill:none;stroke:#b0b0b0;stroke-width:0.8;"/>
   </g>
   <g id="xtick_15">
    <g id="line2d_18">
     <path d="M 568.4373 471.537366 
L 573.974864 473.161728 
" style="fill:none;stroke:#000000;stroke-linecap:square;stroke-width:0.8;"/>
    </g>
    <g id="text_18">
     <!-- −2 -->
     <g transform="translate(579.993906 479.486169)scale(0.1 -0.1)">
      <use xlink:href="#DejaVuSans-8722"/>
      <use x="83.789062" xlink:href="#DejaVuSans-50"/>
     </g>
    </g>
   </g>
   <g id="xtick_16">
    <g id="line2d_19">
     <path d="M 569.511973 421.288469 
L 575.079978 422.839766 
" style="fill:none;stroke:#000000;stroke-linecap:square;stroke-width:0.8;"/>
    </g>
    <g id="text_19">
     <!-- −1 -->
     <g transform="translate(581.166919 429.22151)scale(0.1 -0.1)">
      <use xlink:href="#DejaVuSans-8722"/>
      <use x="83.789062" xlink:href="#DejaVuSans-49"/>
     </g>
    </g>
   </g>
   <g id="xtick_17">
    <g id="line2d_20">
     <path d="M 570.597825 370.516904 
L 576.196605 371.993523 
" style="fill:none;stroke:#000000;stroke-linecap:square;stroke-width:0.8;"/>
    </g>
    <g id="text_20">
     <!-- 0 -->
     <g transform="translate(586.541982 378.433836)scale(0.1 -0.1)">
      <use xlink:href="#DejaVuSans-48"/>
     </g>
    </g>
   </g>
   <g id="xtick_18">
    <g id="line2d_21">
     <path d="M 571.695031 319.214475 
L 577.324927 320.614763 
" style="fill:none;stroke:#000000;stroke-linecap:square;stroke-width:0.8;"/>
    </g>
    <g id="text_21">
     <!-- 1 -->
     <g transform="translate(587.739598 327.114941)scale(0.1 -0.1)">
      <use xlink:href="#DejaVuSans-49"/>
     </g>
    </g>
   </g>
   <g id="xtick_19">
    <g id="line2d_22">
     <path d="M 572.803769 267.37281 
L 578.465128 268.695077 
" style="fill:none;stroke:#000000;stroke-linecap:square;stroke-width:0.8;"/>
    </g>
    <g id="text_22">
     <!-- 2 -->
     <g transform="translate(588.949806 275.256446)scale(0.1 -0.1)">
      <use xlink:href="#DejaVuSans-50"/>
     </g>
    </g>
   </g>
   <g id="xtick_20">
    <g id="line2d_23">
     <path d="M 573.924223 214.983365 
L 579.617396 216.225876 
" style="fill:none;stroke:#000000;stroke-linecap:square;stroke-width:0.8;"/>
    </g>
    <g id="text_23">
     <!-- 3 -->
     <g transform="translate(590.172807 222.849796)scale(0.1 -0.1)">
      <use xlink:href="#DejaVuSans-51"/>
     </g>
    </g>
   </g>
  </g>
  <g id="axes_1">
   <g id="line2d_24">
    <path clip-path="url(#p4de8f0c84d)" d="M 431.656441 353.93304 
L 492.596493 370.376255 
" style="fill:none;stroke:#1f77b4;stroke-linecap:square;stroke-width:3;"/>
   </g>
   <g id="line2d_25">
    <path clip-path="url(#p4de8f0c84d)" d="M 492.596493 370.376255 
L 377.588915 409.092707 
" style="fill:none;stroke:#ff7f0e;stroke-linecap:square;stroke-width:3;"/>
   </g>
   <g id="line2d_26">
    <path clip-path="url(#p4de8f0c84d)" d="M 377.588915 409.092707 
L 377.656492 369.92267 
" style="fill:none;stroke:#2ca02c;stroke-linecap:square;stroke-width:3;"/>
   </g>
   <g id="line2d_27">
    <path clip-path="url(#p4de8f0c84d)" d="M 377.656492 369.92267 
L 262.490947 337.762352 
" style="fill:none;stroke:#d62728;stroke-linecap:square;stroke-width:1.5;"/>
   </g>
   <g id="line2d_28">
    <path clip-path="url(#p4de8f0c84d)" d="M 262.490947 337.762352 
L 329.746425 317.656133 
" style="fill:none;stroke:#9467bd;stroke-linecap:square;stroke-width:1.5;"/>
   </g>
   <g id="line2d_29">
    <path clip-path="url(#p4de8f0c84d)" d="M 329.746425 317.656133 
L 329.77659 327.262865 
" style="fill:none;stroke:#8c564b;stroke-linecap:square;stroke-width:1.5;"/>
   </g>
   <g id="line2d_30">
    <path clip-path="url(#p4de8f0c84d)" d="M 329.77659 327.262865 
L 380.287667 340.905033 
" style="fill:none;stroke:#e377c2;stroke-linecap:square;"/>
   </g>
   <g id="line2d_31">
    <path clip-path="url(#p4de8f0c84d)" d="M 380.287667 340.905033 
L 369.305993 344.338328 
" style="fill:none;stroke:#7f7f7f;stroke-linecap:square;"/>
   </g>
   <g id="line2d_32">
    <path clip-path="url(#p4de8f0c84d)" d="M 369.305993 344.338328 
L 369.308419 341.556173 
" style="fill:none;stroke:#bcbd22;stroke-linecap:square;"/>
   </g>
   <g id="line2d_33">
    <path clip-path="url(#p4de8f0c84d)" d="M 369.308419 341.556173 
L 359.419034 338.874161 
" style="fill:none;stroke:#17becf;stroke-linecap:square;stroke-width:0.75;"/>
   </g>
   <g id="line2d_34">
    <path clip-path="url(#p4de8f0c84d)" d="M 359.419034 338.874161 
L 363.84835 337.502806 
" style="fill:none;stroke:#1f77b4;stroke-linecap:square;stroke-width:0.75;"/>
   </g>
   <g id="line2d_35">
    <path clip-path="url(#p4de8f0c84d)" d="M 363.84835 337.502806 
L 363.848118 338.236016 
" style="fill:none;stroke:#ff7f0e;stroke-linecap:square;stroke-width:0.75;"/>
   </g>
   <g id="Path3DCollection_1">
    <defs>
     <path d="M 0 2.236068 
C 0.593012 2.236068 1.161816 2.000462 1.581139 1.581139 
C 2.000462 1.161816 2.236068 0.593012 2.236068 0 
C 2.236068 -0.593012 2.000462 -1.161816 1.581139 -1.581139 
C 1.161816 -2.000462 0.593012 -2.236068 0 -2.236068 
C -0.593012 -2.236068 -1.161816 -2.000462 -1.581139 -1.581139 
C -2.000462 -1.161816 -2.236068 -0.593012 -2.236068 0 
C -2.236068 0.593012 -2.000462 1.161816 -1.581139 1.581139 
C -1.161816 2.000462 -0.593012 2.236068 0 2.236068 
z
" id="m69f6d1d1ca" style="stroke:#ff0000;"/>
    </defs>
    <g clip-path="url(#p4de8f0c84d)">
     <use style="fill:#ff0000;stroke:#ff0000;" x="431.656441" xlink:href="#m69f6d1d1ca" y="353.93304"/>
    </g>
   </g>
   <g id="Path3DCollection_2">
    <defs>
     <path d="M 0 2.236068 
C 0.593012 2.236068 1.161816 2.000462 1.581139 1.581139 
C 2.000462 1.161816 2.236068 0.593012 2.236068 0 
C 2.236068 -0.593012 2.000462 -1.161816 1.581139 -1.581139 
C 1.161816 -2.000462 0.593012 -2.236068 0 -2.236068 
C -0.593012 -2.236068 -1.161816 -2.000462 -1.581139 -1.581139 
C -2.000462 -1.161816 -2.236068 -0.593012 -2.236068 0 
C -2.236068 0.593012 -2.000462 1.161816 -1.581139 1.581139 
C -1.161816 2.000462 -0.593012 2.236068 0 2.236068 
z
" id="m8a0ecdcfb4" style="stroke:#ffff00;"/>
    </defs>
    <g clip-path="url(#p4de8f0c84d)">
     <use style="fill:#ffff00;stroke:#ffff00;" x="363.848118" xlink:href="#m8a0ecdcfb4" y="338.236016"/>
    </g>
   </g>
   <g id="Path3DCollection_3">
    <defs>
     <path d="M 0 2.236068 
C 0.593012 2.236068 1.161816 2.000462 1.581139 1.581139 
C 2.000462 1.161816 2.236068 0.593012 2.236068 0 
C 2.236068 -0.593012 2.000462 -1.161816 1.581139 -1.581139 
C 1.161816 -2.000462 0.593012 -2.236068 0 -2.236068 
C -0.593012 -2.236068 -1.161816 -2.000462 -1.581139 -1.581139 
C -2.000462 -1.161816 -2.236068 -0.593012 -2.236068 0 
C -2.236068 0.593012 -2.000462 1.161816 -1.581139 1.581139 
C -1.161816 2.000462 -0.593012 2.236068 0 2.236068 
z
" id="m714c1d72f8" style="stroke:#008000;"/>
    </defs>
    <g clip-path="url(#p4de8f0c84d)">
     <use style="fill:#008000;stroke:#008000;" x="366.11847" xlink:href="#m714c1d72f8" y="339.073791"/>
    </g>
   </g>
   <g id="Poly3DCollection_1">
    <path clip-path="url(#p4de8f0c84d)" d="M 335.664702 191.0522 
L 358.656306 216.40788 
L 377.783792 201.325964 
L 354.826686 176.192732 
z
" style="fill:#494949;fill-opacity:0.2;"/>
    <path clip-path="url(#p4de8f0c84d)" d="M 358.656306 216.40788 
L 381.886099 242.026239 
L 400.97735 226.718062 
L 377.783792 201.325964 
z
" style="fill:#494949;fill-opacity:0.2;"/>
    <path clip-path="url(#p4de8f0c84d)" d="M 316.28014 206.084269 
L 339.305492 231.665889 
L 358.656306 216.40788 
L 335.664702 191.0522 
z
" style="fill:#494949;fill-opacity:0.2;"/>
    <path clip-path="url(#p4de8f0c84d)" d="M 381.886099 242.026239 
L 405.357801 267.911381 
L 424.411032 252.373044 
L 400.97735 226.718062 
z
" style="fill:#494949;fill-opacity:0.2;"/>
    <path clip-path="url(#p4de8f0c84d)" d="M 339.305492 231.665889 
L 362.570781 257.514083 
L 381.886099 242.026239 
L 358.656306 216.40788 
z
" style="fill:#494949;fill-opacity:0.2;"/>
    <path clip-path="url(#p4de8f0c84d)" d="M 296.6691 221.291965 
L 319.727414 247.103093 
L 339.305492 231.665889 
L 316.28014 206.084269 
z
" style="fill:#494949;fill-opacity:0.2;"/>
    <path clip-path="url(#p4de8f0c84d)" d="M 405.357801 267.911381 
L 429.07521 294.067496 
L 448.088585 278.295014 
L 424.411032 252.373044 
z
" style="fill:#494949;fill-opacity:0.2;"/>
    <path clip-path="url(#p4de8f0c84d)" d="M 362.570781 257.514083 
L 386.079778 283.633042 
L 405.357801 267.911381 
L 381.886099 242.026239 
z
" style="fill:#494949;fill-opacity:0.2;"/>
    <path clip-path="url(#p4de8f0c84d)" d="M 319.727414 247.103093 
L 343.027427 273.184776 
L 362.570781 257.514083 
L 339.305492 231.665889 
z
" style="fill:#494949;fill-opacity:0.2;"/>
    <path clip-path="url(#p4de8f0c84d)" d="M 276.82759 236.678383 
L 299.918046 262.722668 
L 319.727414 247.103093 
L 296.6691 221.291965 
z
" style="fill:#494949;fill-opacity:0.2;"/>
    <path clip-path="url(#p4de8f0c84d)" d="M 429.07521 294.067496 
L 453.042205 320.498859 
L 472.013837 304.488163 
L 448.088585 278.295014 
z
" style="fill:#494949;fill-opacity:0.2;"/>
    <path clip-path="url(#p4de8f0c84d)" d="M 386.079778 283.633042 
L 409.836332 310.027042 
L 429.07521 294.067496 
L 405.357801 267.911381 
z
" style="fill:#494949;fill-opacity:0.2;"/>
    <path clip-path="url(#p4de8f0c84d)" d="M 343.027427 273.184776 
L 366.572961 299.541289 
L 386.079778 283.633042 
L 362.570781 257.514083 
z
" style="fill:#494949;fill-opacity:0.2;"/>
    <path clip-path="url(#p4de8f0c84d)" d="M 299.918046 262.722668 
L 323.251977 289.041573 
L 343.027427 273.184776 
L 319.727414 247.103093 
z
" style="fill:#494949;fill-opacity:0.2;"/>
    <path clip-path="url(#p4de8f0c84d)" d="M 256.751521 252.246693 
L 279.873266 278.527866 
L 299.918046 262.722668 
L 276.82759 236.678383 
z
" style="fill:#494949;fill-opacity:0.2;"/>
    <path clip-path="url(#p4de8f0c84d)" d="M 453.042205 320.498859 
L 477.262746 347.209839 
L 496.190695 330.956768 
L 472.013837 304.488163 
z
" style="fill:#494949;fill-opacity:0.2;"/>
    <path clip-path="url(#p4de8f0c84d)" d="M 409.836332 310.027042 
L 433.844374 336.70045 
L 453.042205 320.498859 
L 429.07521 294.067496 
z
" style="fill:#494949;fill-opacity:0.2;"/>
    <path clip-path="url(#p4de8f0c84d)" d="M 366.572961 299.541289 
L 390.367915 326.177001 
L 409.836332 310.027042 
L 386.079778 283.633042 
z
" style="fill:#494949;fill-opacity:0.2;"/>
    <path clip-path="url(#p4de8f0c84d)" d="M 323.251977 289.041573 
L 346.833253 315.639465 
L 366.572961 299.541289 
L 343.027427 273.184776 
z
" style="fill:#494949;fill-opacity:0.2;"/>
    <path clip-path="url(#p4de8f0c84d)" d="M 279.873266 278.527866 
L 303.24027 305.087811 
L 323.251977 289.041573 
L 299.918046 262.722668 
z
" style="fill:#494949;fill-opacity:0.2;"/>
    <path clip-path="url(#p4de8f0c84d)" d="M 236.436711 268.000138 
L 259.58885 294.522013 
L 279.873266 278.527866 
L 256.751521 252.246693 
z
" style="fill:#494949;fill-opacity:0.2;"/>
    <path clip-path="url(#p4de8f0c84d)" d="M 477.262746 347.209839 
L 501.740879 374.204897 
L 520.623148 357.705197 
L 496.190695 330.956768 
z
" style="fill:#494949;fill-opacity:0.2;"/>
    <path clip-path="url(#p4de8f0c84d)" d="M 433.844374 336.70045 
L 458.107919 363.657727 
L 477.262746 347.209839 
L 453.042205 320.498859 
z
" style="fill:#494949;fill-opacity:0.2;"/>
    <path clip-path="url(#p4de8f0c84d)" d="M 390.367915 326.177001 
L 414.416275 353.096372 
L 433.844374 336.70045 
L 409.836332 310.027042 
z
" style="fill:#494949;fill-opacity:0.2;"/>
    <path clip-path="url(#p4de8f0c84d)" d="M 346.833253 315.639465 
L 370.665827 342.520802 
L 390.367915 326.177001 
L 366.572961 299.541289 
z
" style="fill:#494949;fill-opacity:0.2;"/>
    <path clip-path="url(#p4de8f0c84d)" d="M 303.24027 305.087811 
L 326.856458 331.930989 
L 346.833253 315.639465 
L 323.251977 289.041573 
z
" style="fill:#494949;fill-opacity:0.2;"/>
    <path clip-path="url(#p4de8f0c84d)" d="M 259.58885 294.522013 
L 282.988048 321.326905 
L 303.24027 305.087811 
L 279.873266 278.527866 
z
" style="fill:#494949;fill-opacity:0.2;"/>
    <path clip-path="url(#p4de8f0c84d)" d="M 215.878875 283.942042 
L 239.060477 310.70852 
L 259.58885 294.522013 
L 236.436711 268.000138 
z
" style="fill:#494949;fill-opacity:0.2;"/>
    <path clip-path="url(#p4de8f0c84d)" d="M 501.740879 374.204897 
L 526.480735 401.488589 
L 545.315273 384.737911 
L 520.623148 357.705197 
z
" style="fill:#494949;fill-opacity:0.2;"/>
    <path clip-path="url(#p4de8f0c84d)" d="M 458.107919 363.657727 
L 482.631068 390.903429 
L 501.740879 374.204897 
L 477.262746 347.209839 
z
" style="fill:#494949;fill-opacity:0.2;"/>
    <path clip-path="url(#p4de8f0c84d)" d="M 414.416275 353.096372 
L 438.722109 380.303956 
L 458.107919 363.657727 
L 433.844374 336.70045 
z
" style="fill:#494949;fill-opacity:0.2;"/>
    <path clip-path="url(#p4de8f0c84d)" d="M 370.665827 342.520802 
L 394.753739 369.690141 
L 414.416275 353.096372 
L 390.367915 326.177001 
z
" style="fill:#494949;fill-opacity:0.2;"/>
    <path clip-path="url(#p4de8f0c84d)" d="M 326.856458 331.930989 
L 350.725836 359.061954 
L 370.665827 342.520802 
L 346.833253 315.639465 
z
" style="fill:#494949;fill-opacity:0.2;"/>
    <path clip-path="url(#p4de8f0c84d)" d="M 282.988048 321.326905 
L 306.638279 348.419368 
L 326.856458 331.930989 
L 303.24027 305.087811 
z
" style="fill:#494949;fill-opacity:0.2;"/>
    <path clip-path="url(#p4de8f0c84d)" d="M 239.060477 310.70852 
L 262.490947 337.762352 
L 282.988048 321.326905 
L 259.58885 294.522013 
z
" style="fill:#494949;fill-opacity:0.2;"/>
    <path clip-path="url(#p4de8f0c84d)" d="M 195.073626 300.075806 
L 218.283719 327.090878 
L 239.060477 310.70852 
L 215.878875 283.942042 
z
" style="fill:#494949;fill-opacity:0.2;"/>
    <path clip-path="url(#p4de8f0c84d)" d="M 482.631068 390.903429 
L 507.418009 418.442209 
L 526.480735 401.488589 
L 501.740879 374.204897 
z
" style="fill:#494949;fill-opacity:0.2;"/>
    <path clip-path="url(#p4de8f0c84d)" d="M 438.722109 380.303956 
L 463.289576 407.804407 
L 482.631068 390.903429 
L 458.107919 363.657727 
z
" style="fill:#494949;fill-opacity:0.2;"/>
    <path clip-path="url(#p4de8f0c84d)" d="M 394.753739 369.690141 
L 419.101114 397.152134 
L 438.722109 380.303956 
L 414.416275 353.096372 
z
" style="fill:#494949;fill-opacity:0.2;"/>
    <path clip-path="url(#p4de8f0c84d)" d="M 350.725836 359.061954 
L 374.852498 386.48536 
L 394.753739 369.690141 
L 370.665827 342.520802 
z
" style="fill:#494949;fill-opacity:0.2;"/>
    <path clip-path="url(#p4de8f0c84d)" d="M 306.638279 348.419368 
L 330.543606 375.804055 
L 350.725836 359.061954 
L 326.856458 331.930989 
z
" style="fill:#494949;fill-opacity:0.2;"/>
    <path clip-path="url(#p4de8f0c84d)" d="M 262.490947 337.762352 
L 286.174314 365.108191 
L 306.638279 348.419368 
L 282.988048 321.326905 
z
" style="fill:#494949;fill-opacity:0.2;"/>
    <path clip-path="url(#p4de8f0c84d)" d="M 218.283719 327.090878 
L 241.7445 354.397736 
L 262.490947 337.762352 
L 239.060477 310.70852 
z
" style="fill:#494949;fill-opacity:0.2;"/>
    <path clip-path="url(#p4de8f0c84d)" d="M 174.016471 316.404915 
L 197.254039 343.672662 
L 218.283719 327.090878 
L 195.073626 300.075806 
z
" style="fill:#494949;fill-opacity:0.2;"/>
    <path clip-path="url(#p4de8f0c84d)" d="M 463.289576 407.804407 
L 488.122923 435.60248 
L 507.418009 418.442209 
L 482.631068 390.903429 
z
" style="fill:#494949;fill-opacity:0.2;"/>
    <path clip-path="url(#p4de8f0c84d)" d="M 419.101114 397.152134 
L 443.712166 424.911535 
L 463.289576 407.804407 
L 438.722109 380.303956 
z
" style="fill:#494949;fill-opacity:0.2;"/>
    <path clip-path="url(#p4de8f0c84d)" d="M 374.852498 386.48536 
L 399.240626 414.205959 
L 419.101114 397.152134 
L 394.753739 369.690141 
z
" style="fill:#494949;fill-opacity:0.2;"/>
    <path clip-path="url(#p4de8f0c84d)" d="M 330.543606 375.804055 
L 354.708178 403.48572 
L 374.852498 386.48536 
L 350.725836 359.061954 
z
" style="fill:#494949;fill-opacity:0.2;"/>
    <path clip-path="url(#p4de8f0c84d)" d="M 286.174314 365.108191 
L 310.114696 392.750789 
L 330.543606 375.804055 
L 306.638279 348.419368 
z
" style="fill:#494949;fill-opacity:0.2;"/>
    <path clip-path="url(#p4de8f0c84d)" d="M 241.7445 354.397736 
L 265.460055 382.001135 
L 286.174314 365.108191 
L 262.490947 337.762352 
z
" style="fill:#494949;fill-opacity:0.2;"/>
    <path clip-path="url(#p4de8f0c84d)" d="M 197.254039 343.672662 
L 220.744129 371.236727 
L 241.7445 354.397736 
L 218.283719 327.090878 
z
" style="fill:#494949;fill-opacity:0.2;"/>
    <path clip-path="url(#p4de8f0c84d)" d="M 443.712166 424.911535 
L 468.591203 452.973203 
L 488.122923 435.60248 
L 463.289576 407.804407 
z
" style="fill:#494949;fill-opacity:0.2;"/>
    <path clip-path="url(#p4de8f0c84d)" d="M 399.240626 414.205959 
L 423.894494 442.22861 
L 443.712166 424.911535 
L 419.101114 397.152134 
z
" style="fill:#494949;fill-opacity:0.2;"/>
    <path clip-path="url(#p4de8f0c84d)" d="M 354.708178 403.48572 
L 379.136235 431.46922 
L 399.240626 414.205959 
L 374.852498 386.48536 
z
" style="fill:#494949;fill-opacity:0.2;"/>
    <path clip-path="url(#p4de8f0c84d)" d="M 310.114696 392.750789 
L 334.316298 420.695003 
L 354.708178 403.48572 
L 330.543606 375.804055 
z
" style="fill:#494949;fill-opacity:0.2;"/>
    <path clip-path="url(#p4de8f0c84d)" d="M 265.460055 382.001135 
L 289.434555 409.905929 
L 310.114696 392.750789 
L 286.174314 365.108191 
z
" style="fill:#494949;fill-opacity:0.2;"/>
    <path clip-path="url(#p4de8f0c84d)" d="M 220.744129 371.236727 
L 244.49088 399.101967 
L 265.460055 382.001135 
L 241.7445 354.397736 
z
" style="fill:#494949;fill-opacity:0.2;"/>
    <path clip-path="url(#p4de8f0c84d)" d="M 423.894494 442.22861 
L 448.81847 470.558275 
L 468.591203 452.973203 
L 443.712166 424.911535 
z
" style="fill:#494949;fill-opacity:0.2;"/>
    <path clip-path="url(#p4de8f0c84d)" d="M 379.136235 431.46922 
L 403.83211 459.759518 
L 423.894494 442.22861 
L 399.240626 414.205959 
z
" style="fill:#494949;fill-opacity:0.2;"/>
    <path clip-path="url(#p4de8f0c84d)" d="M 334.316298 420.695003 
L 358.783419 448.945798 
L 379.136235 431.46922 
L 354.708178 403.48572 
z
" style="fill:#494949;fill-opacity:0.2;"/>
    <path clip-path="url(#p4de8f0c84d)" d="M 289.434555 409.905929 
L 313.672266 438.117084 
L 334.316298 420.695003 
L 310.114696 392.750789 
z
" style="fill:#494949;fill-opacity:0.2;"/>
    <path clip-path="url(#p4de8f0c84d)" d="M 244.49088 399.101967 
L 268.498522 427.273345 
L 289.434555 409.905929 
L 265.460055 382.001135 
z
" style="fill:#494949;fill-opacity:0.2;"/>
    <path clip-path="url(#p4de8f0c84d)" d="M 403.83211 459.759518 
L 428.800233 488.361688 
L 448.81847 470.558275 
L 423.894494 442.22861 
z
" style="fill:#494949;fill-opacity:0.2;"/>
    <path clip-path="url(#p4de8f0c84d)" d="M 358.783419 448.945798 
L 383.520453 477.508246 
L 403.83211 459.759518 
L 379.136235 431.46922 
z
" style="fill:#494949;fill-opacity:0.2;"/>
    <path clip-path="url(#p4de8f0c84d)" d="M 313.672266 438.117084 
L 338.177546 466.639671 
L 358.783419 448.945798 
L 334.316298 420.695003 
z
" style="fill:#494949;fill-opacity:0.2;"/>
    <path clip-path="url(#p4de8f0c84d)" d="M 268.498522 427.273345 
L 292.771377 455.755934 
L 313.672266 438.117084 
L 289.434555 409.905929 
z
" style="fill:#494949;fill-opacity:0.2;"/>
    <path clip-path="url(#p4de8f0c84d)" d="M 383.520453 477.508246 
L 408.531892 506.387532 
L 428.800233 488.361688 
L 403.83211 459.759518 
z
" style="fill:#494949;fill-opacity:0.2;"/>
    <path clip-path="url(#p4de8f0c84d)" d="M 338.177546 466.639671 
L 362.954849 495.478878 
L 383.520453 477.508246 
L 358.783419 448.945798 
z
" style="fill:#494949;fill-opacity:0.2;"/>
    <path clip-path="url(#p4de8f0c84d)" d="M 292.771377 455.755934 
L 317.313866 484.554919 
L 338.177546 466.639671 
L 313.672266 438.117084 
z
" style="fill:#494949;fill-opacity:0.2;"/>
    <path clip-path="url(#p4de8f0c84d)" d="M 362.954849 495.478878 
L 388.008731 524.640004 
L 408.531892 506.387532 
L 383.520453 477.508246 
z
" style="fill:#494949;fill-opacity:0.2;"/>
    <path clip-path="url(#p4de8f0c84d)" d="M 317.313866 484.554919 
L 342.130505 513.675602 
L 362.954849 495.478878 
L 338.177546 466.639671 
z
" style="fill:#494949;fill-opacity:0.2;"/>
    <path clip-path="url(#p4de8f0c84d)" d="M 342.130505 513.675602 
L 367.225914 543.123403 
L 388.008731 524.640004 
L 362.954849 495.478878 
z
" style="fill:#494949;fill-opacity:0.2;"/>
   </g>
  </g>
 </g>
 <defs>
  <clipPath id="p4de8f0c84d">
   <rect height="546.084" width="534.564" x="86.22" y="85.104"/>
  </clipPath>
 </defs>
</svg>
